<?xml version="1.0" encoding="utf-8"?>
<!-- Generator: Adobe Illustrator 22.0.0, SVG Export Plug-In . SVG Version: 6.00 Build 0)  -->
<svg version="1.1" id="Layer_1" xmlns="http://www.w3.org/2000/svg" xmlns:xlink="http://www.w3.org/1999/xlink" x="0px" y="0px"
	 viewBox="0 0 512 510.7" style="enable-background:new 0 0 512 510.7;" xml:space="preserve">
<style type="text/css">
	.st0{fill:#898989;}
</style>
<title>Artboard 2 copy 2</title>
<path class="st0" d="M134.1,162.8c0-0.1,0-0.1,0-0.2l-0.1-0.4c0-0.1,0-0.2,0-0.3l-0.1-0.2c0-0.2-0.1-0.3-0.1-0.5l0,0l-12.2-37.3
	c-0.1-0.7-0.3-1.4-0.7-2l-15.7-47.8c-1.2-3.7-5.2-5.7-8.8-4.5c-2.2,0.7-3.8,2.4-4.5,4.6l-26.8,87c-0.1,0.2-0.1,0.5-0.2,0.7
	c0,0.1,0,0.2-0.1,0.3l-0.1,0.4c0,0.3,0,0.5,0,0.8v267.9c0,3.9,3.1,7,7,7h55.3c3.9,0,7-3.1,7-7V163.3
	C134.1,163.1,134.1,163,134.1,162.8z M88.6,132.6l20.9-0.4l7.9,24.2H81.3L88.6,132.6z M98.8,99.4l6.2,18.8l-12,0.2L98.8,99.4z
	 M120.1,424.3H78.8V170.4h41.3V424.3z"/>
<path class="st0" d="M301.1,343.5l0.2,0.1c0.2,0.1,0.4,0.2,0.6,0.3l0.2,0.1c0.3,0.1,0.5,0.2,0.8,0.3l0.2,0.1l0.6,0.1h0.2
	c0.6,0.1,1.2,0.1,1.8,0h0.2l0.7-0.1l0.2-0.1c0.3-0.1,0.5-0.2,0.8-0.3l0.2-0.1c0.2-0.1,0.4-0.2,0.6-0.3l0.2-0.1
	c0.2-0.1,0.4-0.3,0.6-0.4l0.1-0.1c0.2-0.2,0.4-0.3,0.6-0.5l100-104.1c0.1-0.1,0.1-0.1,0.2-0.2c0.1-0.1,0.2-0.2,0.2-0.3l0.2-0.3
	c0.1-0.1,0.1-0.2,0.2-0.3c0.1-0.1,0.1-0.2,0.2-0.3c0.1-0.1,0.1-0.2,0.2-0.3l0.1-0.3c0-0.1,0.1-0.2,0.1-0.3s0.1-0.2,0.1-0.3
	s0.1-0.2,0.1-0.3s0.1-0.2,0.1-0.3c0-0.1,0.1-0.2,0.1-0.3c0-0.1,0-0.2,0.1-0.4s0-0.2,0-0.3s0-0.4,0-0.6v-0.1c0-0.2,0-0.4,0-0.6
	s0-0.2,0-0.3s0-0.2-0.1-0.4s0-0.2-0.1-0.4s0-0.2-0.1-0.3s-0.1-0.2-0.1-0.3s-0.1-0.2-0.1-0.3l-0.1-0.3l-0.1-0.3
	c0-0.1-0.1-0.2-0.2-0.3c-0.1-0.1-0.1-0.2-0.2-0.3c-0.1-0.1-0.1-0.2-0.2-0.3c-0.1-0.1-0.1-0.2-0.2-0.3l-0.2-0.3l-0.2-0.2l-48.5-50.4
	l-0.1-0.1c-0.1-0.1-0.2-0.2-0.3-0.3l-0.2-0.2l-0.3-0.2l-0.2-0.2l-0.4-0.3l-0.2-0.1c-0.2-0.1-0.4-0.2-0.6-0.3h0
	c-0.9-0.4-1.8-0.6-2.7-0.6H253.4c-0.9,0-1.9,0.2-2.7,0.6h-0.1l-0.6,0.3l-0.2,0.1l-0.4,0.3l-0.2,0.2l-0.3,0.2l-0.2,0.2l-0.3,0.3
	l-0.1,0.1l-48.5,50.4l-0.1,0.2l-0.2,0.3c-0.1,0.1-0.1,0.2-0.2,0.3l-0.2,0.3l-0.2,0.3l-0.2,0.3l-0.1,0.3c0,0.1-0.1,0.2-0.1,0.3
	s-0.1,0.2-0.1,0.3s-0.1,0.2-0.1,0.3s-0.1,0.2-0.1,0.3l-0.1,0.4c0,0.1,0,0.2,0,0.4s0,0.2,0,0.3s0,0.4,0,0.6v0.1c0,0.2,0,0.4,0,0.6
	s0,0.2,0,0.3s0,0.2,0,0.4l0.1,0.3c0,0.1,0.1,0.2,0.1,0.3s0.1,0.2,0.1,0.3s0.1,0.2,0.1,0.3s0.1,0.2,0.1,0.3l0.1,0.3l0.2,0.3l0.2,0.3
	l0.2,0.3l0.2,0.3c0.1,0.1,0.2,0.2,0.2,0.3l0.1,0.2l100,104.1c0.2,0.2,0.4,0.4,0.6,0.5l0.1,0.1L301.1,343.5z M361.5,240.5h27
	l-56.6,58.9L361.5,240.5z M304.9,322l-40.9-81.5h81.7L304.9,322z M364,226.5l-0.3-25.8l24.8,25.8H364z M270,226.5l34.9-33.7
	l34.9,33.7H270z M221.4,226.5l24.8-25.8l-0.4,25.8H221.4z M248.4,240.5l29.6,58.9l-56.6-58.9L248.4,240.5z M349.9,216.8l-27.7-26.7
	h27.3L349.9,216.8z M287.6,190.1L260,216.9l0.4-26.7L287.6,190.1z"/>
<path class="st0" d="M445.2,69.4H164.7c-3.9,0-7,3.1-7,7v355c0,3.9,3.1,7,7,7h209.4c1.9,0,3.6-0.7,5-2l71.1-71.1
	c1.3-1.3,2.1-3.1,2-5V76.4C452.2,72.5,449.1,69.4,445.2,69.4z M171.7,83.4h266.5v268.3h-64.1c-3.9,0-7,3.1-7,7v65.7H171.7
	L171.7,83.4z M429.9,365.6l-48.8,48.8v-48.8H429.9z"/>
</svg>
