<?xml version="1.0" encoding="utf-8"?>
<!-- Generator: Adobe Illustrator 22.0.0, SVG Export Plug-In . SVG Version: 6.00 Build 0)  -->
<svg version="1.1" id="Layer_1" xmlns="http://www.w3.org/2000/svg" xmlns:xlink="http://www.w3.org/1999/xlink" x="0px" y="0px"
	 viewBox="0 0 512 510.7" style="enable-background:new 0 0 512 510.7;" xml:space="preserve">
<style type="text/css">
	.st0{fill:#909296;}
</style>
<title>Artboard 1 copy</title>
<path class="st0" d="M152.3,91.1H99.6c-3,0-5.4,2.5-5.4,5.6c0,0,0,0,0,0v13.4c0,3,2.4,5.4,5.4,5.4s5.4-2.4,5.4-5.4v-7.8h15.6v45.8
	h-5.4c-3.1,0-5.6,2.5-5.6,5.6c0,3.1,2.5,5.6,5.6,5.6h21.5c3.1,0,5.6-2.5,5.6-5.6c0-3.1-2.5-5.6-5.6-5.6h-5.4v-45.8h15.6v7.8
	c0,3,2.4,5.4,5.4,5.4c3,0,5.4-2.4,5.4-5.4V96.7C157.8,93.7,155.4,91.2,152.3,91.1C152.3,91.1,152.3,91.1,152.3,91.1z"/>
<path class="st0" d="M80.6,184.4h352.5c7.1-0.1,12.9-5.8,13.1-12.9V77.2c0-7.2-5.9-13.1-13.1-13.1H80.6c-7.2,0-13.1,5.9-13.1,13.1
	v94.1C67.5,178.5,73.4,184.4,80.6,184.4z M81.5,78.1h350.7v92.3H81.5V78.1z"/>
<path class="st0" d="M80.6,366.2h89c7.2,0,13-5.6,13.1-12.5V213c0-7-5.9-12.7-13.1-12.7h-89c-7.2,0-13.1,5.7-13.1,12.7v140.5
	C67.5,360.5,73.4,366.2,80.6,366.2z M81.5,213.8h87.2v138.8H81.5V213.8z"/>
<path class="st0" d="M212.3,200.3c-7.2,0-13.1,5.7-13.1,12.7v140.5c0,7,5.9,12.7,13.1,12.7h89c7.2,0,13.1-5.7,13.1-12.7V213
	c0-7-5.9-12.7-13.1-12.7L212.3,200.3z M300.4,352.6h-87.2V213.8h87.2V352.6z"/>
<path class="st0" d="M433.1,200.3h-89c-7.2,0-13.1,5.7-13.1,12.7v140.5c0,7,5.9,12.7,13.1,12.7h89c7.2,0,13-5.6,13.1-12.5V213
	C446.2,206,440.3,200.3,433.1,200.3z M432.2,352.6H345V213.8h87.2V352.6z"/>
<path class="st0" d="M444.3,405.1l-28.1-24.4c-2.9-2.5-7.3-2.2-9.9,0.7s-2.2,7.3,0.7,9.9l14.3,12.4h-327l14.4-12.6
	c2.9-2.6,3.2-7,0.6-9.9c-2.6-2.9-7-3.2-9.9-0.6l-28.2,24.8c-2.9,2.5-3.2,7-0.7,9.9c0.2,0.2,0.4,0.5,0.7,0.7l28.2,24.4
	c3,2.4,7.4,2,9.8-1c2.3-2.9,2-7.1-0.7-9.6l-13.9-12h326.1L407,430c-2.9,2.5-3.2,7-0.7,9.9c2.5,2.9,7,3.2,9.9,0.7c0,0,0,0,0,0
	l28.1-24.8c2.9-2.5,3.2-7,0.7-9.9C444.8,405.6,444.6,405.4,444.3,405.1L444.3,405.1z"/>
<path class="st0" d="M150.7,236H99.4c-3.9,0-7,3-7,6.8c0,3.8,3.1,6.8,7,6.8h51.3c3.9,0,7-3,7-6.8C157.7,239,154.6,236,150.7,236z"/>
<path class="st0" d="M150.7,274.6H99.4c-3.9,0-7,3-7,6.8s3.1,6.8,7,6.8h51.3c3.9,0,7-3,7-6.8S154.6,274.6,150.7,274.6z"/>
<path class="st0" d="M150.7,313.3H99.4c-3.9,0-7,3-7,6.8s3.1,6.8,7,6.8h51.3c3.9,0,7-3,7-6.8S154.6,313.3,150.7,313.3z"/>
<path class="st0" d="M229.8,249.6h51.3c3.9,0,7-3,7-6.8c0-3.8-3.1-6.8-7-6.8h-51.3c-3.9,0-7,3-7,6.8
	C222.8,246.5,225.9,249.6,229.8,249.6z"/>
<path class="st0" d="M229.8,288.2h51.3c3.9,0,7-3,7-6.8s-3.1-6.8-7-6.8h-51.3c-3.9,0-7,3-7,6.8S225.9,288.2,229.8,288.2z"/>
<path class="st0" d="M229.8,326.9h51.3c3.9,0,7-3,7-6.8s-3.1-6.8-7-6.8h-51.3c-3.9,0-7,3-7,6.8S225.9,326.9,229.8,326.9z"/>
<path class="st0" d="M362.9,249.6h51.3c3.9,0,7-3,7-6.8s-3.1-6.8-7-6.8h-51.3c-3.9,0-7,3-7,6.8C355.9,246.5,359,249.6,362.9,249.6z"
	/>
<path class="st0" d="M362.9,288.2h51.3c3.9,0,7-3,7-6.8s-3.1-6.8-7-6.8h-51.3c-3.9,0-7,3-7,6.8S359,288.2,362.9,288.2z"/>
<path class="st0" d="M362.9,326.9h51.3c3.9,0,7-3,7-6.8s-3.1-6.8-7-6.8h-51.3c-3.9,0-7,3-7,6.8S359,326.9,362.9,326.9z"/>
</svg>
