<?xml version="1.0" encoding="utf-8"?>
<!-- Generator: Adobe Illustrator 22.0.0, SVG Export Plug-In . SVG Version: 6.00 Build 0)  -->
<svg version="1.1" id="Layer_1" xmlns="http://www.w3.org/2000/svg" xmlns:xlink="http://www.w3.org/1999/xlink" x="0px" y="0px"
	 viewBox="0 0 512 512" style="enable-background:new 0 0 512 512;" xml:space="preserve">
<style type="text/css">
	.st0{fill:#909296;}
</style>
<title>Artboard 1 copy 2</title>
<path class="st0" d="M440,60.6H73.6c-6.6,0-11.9,5.3-11.9,11.9v223.2c0,6.6,5.3,11.9,11.9,11.9h366.3c6.5,0,11.8-5.2,12-11.8V72.5
	C451.9,65.9,446.6,60.6,440,60.6z M437.9,74.6v18.7H75.7V74.6H437.9z M75.7,293.6V107.3h362.2v186.3H75.7z"/>
<path class="st0" d="M440.6,325H73c-6.2,0-11.3,5.1-11.3,11.3v102.3c0,6.2,5.1,11.3,11.3,11.3h367.5c6.1,0,11.2-4.9,11.4-11
	c0-0.1,0-0.2,0-0.3V336.3C451.9,330.1,446.8,325,440.6,325z M75.7,376h55.6v23H75.7V376z M357.8,362v-23h33v23H357.8z M333.4,399
	v-23h33v23H333.4z M286.3,399v-23h33.1v23H286.3z M192.3,399v-23h33v23H192.3z M145.3,399v-23h33v23H145.3z M239.3,376h33v23h-33
	V376z M343.8,362h-33v-23h33V362z M296.8,362h-33v-23h33V362z M249.8,362h-33.1v-23h33.1V362z M202.7,362h-33v-23h33V362z
	 M155.7,362h-33v-23h33V362z M155.7,413v22.9h-33V413H155.7z M169.7,413h33v22.9h-33V413z M216.7,413h80.1v22.9h-80.1L216.7,413z
	 M310.8,413h33v22.9h-33V413z M357.8,413h33v22.9h-33V413z M380.4,399v-23h57.5v23H380.4z M437.9,362h-33.1v-23h33.1V362z
	 M108.7,339v23h-33v-23H108.7z M75.7,413h33v22.9h-33V413z M404.8,435.9V413h33.1v22.9H404.8z"/>
<path class="st0" d="M280,141.6c-3.6-1.5-7.7,0.2-9.2,3.7l-41.3,98.4c-1.5,3.6,0.2,7.7,3.7,9.2c0.9,0.4,1.8,0.6,2.7,0.6
	c2.8,0,5.4-1.7,6.4-4.3l41.3-98.4C285.2,147.2,283.6,143.1,280,141.6z"/>
<path class="st0" d="M210.2,216.8L186,196.1l24.3-21.2c2.9-2.5,3.2-7,0.7-9.9c-2.5-2.9-7-3.2-9.9-0.7l-30.4,26.5
	c-2.9,2.5-3.2,7-0.7,9.9c0.2,0.3,0.5,0.5,0.7,0.7l30.4,26c2.9,2.5,7.4,2.2,9.9-0.8C213.5,223.7,213.2,219.3,210.2,216.8L210.2,216.8
	L210.2,216.8z"/>
<path class="st0" d="M341.9,190.6l-30.4-26.1c-3-2.5-7.4-2.1-9.9,0.9c-2.4,2.9-2.1,7.2,0.7,9.7l24.3,20.8l-24.3,21.2
	c-2.9,2.5-3.2,7-0.7,9.9s7,3.2,9.9,0.7l30.4-26.5c2.9-2.5,3.2-6.9,0.7-9.9C342.4,191.1,342.2,190.8,341.9,190.6L341.9,190.6z"/>
</svg>
