<?xml version="1.0" standalone="no"?>
<!DOCTYPE svg PUBLIC "-//W3C//DTD SVG 1.1//EN" "http://www.w3.org/Graphics/SVG/1.1/DTD/svg11.dtd" >
<svg xmlns="http://www.w3.org/2000/svg">
<metadata>Generated by IcoMoon</metadata>
<defs>
<font id="glfont" horiz-adv-x="1024">
<font-face units-per-em="1024" ascent="960" descent="-64" />
<missing-glyph horiz-adv-x="1024" />
<glyph unicode="&#x20;" horiz-adv-x="512" d="" />
<glyph unicode="&#xe900;" glyph-name="activity" d="M636 60.8l-122.24 468-130.4-337.76-86.24 191.040-40-73.28h-161.12v96h104.16l105.44 192.16 70.88-157.28 154.88 401.44 127.040-486.4 21.76 50.080h247.84v-96h-184.8l-107.2-248z" />
<glyph unicode="&#xe901;" glyph-name="addlocation" d="M512 889.92c-176 0-320-147.68-320-329.92s132.64-323.36 320-555.68c183.2 230.080 320 373.44 320 555.68s-144 329.92-320 329.92zM512 330.88c-132.548 0-240 107.452-240 240s107.452 240 240 240c132.548 0 240-107.452 240-240v0c0-132.548-107.452-240-240-240v0zM552.16 443.2v92.48h92.48v80h-92.48v92.48h-80v-92.48h-92.48v-80h92.48v-92.48h80z" />
<glyph unicode="&#xe902;" glyph-name="addmap" d="M423.68 863.2c-146.757-2.324-264.833-121.837-264.833-268.928 0-1.474 0.012-2.945 0.035-4.413l-0.003 0.222c0-150.72 109.76-267.68 264.8-459.84 152.32 189.76 264.32 309.12 264.32 459.84 0.021 1.249 0.033 2.723 0.033 4.199 0 146.923-117.805 266.33-264.11 268.917l-0.242 0.003zM423.68 427.2c-94.905 0-171.84 76.935-171.84 171.84s76.935 171.84 171.84 171.84c94.848 0 171.749-76.844 171.84-171.671v-0.009c0-0.048 0-0.104 0-0.16 0-94.905-76.935-171.84-171.84-171.84 0 0 0 0 0 0v0zM771.84 37.76v92.48h92.64v80h-92.64v92.48h-80v-92.48h-92.48v-80h92.48v-92.48h80z" />
<glyph unicode="&#xe903;" glyph-name="align-center" d="M339.2 107.84v84.16c0.746 6.335 6.084 11.202 12.558 11.202 0.085 0 0.17-0.001 0.255-0.003h319.987c0.246 0.017 0.534 0.027 0.824 0.027 6.709 0 12.197-5.227 12.614-11.83l0.002-0.037v-83.52c-0.419-6.64-5.907-11.867-12.616-11.867-0.29 0-0.577 0.010-0.862 0.029l0.039-0.002h-320c-0.055-0.001-0.12-0.001-0.185-0.001-6.7 0-12.182 5.213-12.613 11.804l-0.002 0.038zM928 306.72v83.52c-0.419 6.64-5.907 11.867-12.616 11.867-0.29 0-0.577-0.010-0.862-0.029l0.039 0.002h-805.12c-0.246 0.017-0.534 0.027-0.824 0.027-6.709 0-12.197-5.227-12.614-11.83l-0.002-0.037v-83.52c0.419-6.64 5.907-11.867 12.616-11.867 0.29 0 0.577 0.010 0.862 0.029l-0.039-0.002h805.12c0.246-0.017 0.534-0.027 0.824-0.027 6.709 0 12.197 5.227 12.614 11.83l0.002 0.037zM753.76 505.76v83.52c-0.419 6.64-5.907 11.867-12.616 11.867-0.29 0-0.577-0.010-0.862-0.029l0.039 0.002h-457.28c-0.246 0.017-0.534 0.027-0.824 0.027-6.709 0-12.197-5.227-12.614-11.83l-0.002-0.037v-83.52c0.419-6.64 5.907-11.867 12.616-11.867 0.29 0 0.577 0.010 0.862 0.029l-0.039-0.002h457.28c0.246-0.017 0.534-0.027 0.824-0.027 6.709 0 12.197 5.227 12.614 11.83l0.002 0.037zM212.64 692.8h599.2c0.199-0.012 0.432-0.019 0.666-0.019 6.264 0 11.392 4.865 11.812 11.022l0.002 0.037v85.12c-0.422 6.194-5.55 11.059-11.814 11.059-0.234 0-0.467-0.007-0.698-0.020l0.032 0.001h-599.2c-0.199 0.012-0.432 0.019-0.666 0.019-6.264 0-11.392-4.865-11.812-11.022l-0.002-0.037v-84.96c0.34-6.266 5.503-11.218 11.824-11.218 0.231 0 0.46 0.007 0.688 0.020l-0.032-0.001z" />
<glyph unicode="&#xe904;" glyph-name="align-left" d="M441.92 788.16v-84.16c-0.419-6.64-5.907-11.867-12.616-11.867-0.29 0-0.577 0.010-0.862 0.029l0.039-0.002h-319.040c-0.246-0.017-0.534-0.027-0.824-0.027-6.709 0-12.197 5.227-12.614 11.83l-0.002 0.037v84.16c0.419 6.64 5.907 11.867 12.616 11.867 0.29 0 0.577-0.010 0.862-0.029l-0.039 0.002h319.040c0.246 0.017 0.534 0.027 0.824 0.027 6.709 0 12.197-5.227 12.614-11.83l0.002-0.037zM96 589.28v-83.52c0.419-6.64 5.907-11.867 12.616-11.867 0.29 0 0.577 0.010 0.862 0.029l-0.039-0.002h805.12c0.246-0.017 0.534-0.027 0.824-0.027 6.709 0 12.197 5.227 12.614 11.83l0.002 0.037v83.52c-0.419 6.64-5.907 11.867-12.616 11.867-0.29 0-0.577-0.010-0.862-0.029l0.039 0.002h-805.12c-0.246 0.017-0.534 0.027-0.824 0.027-6.709 0-12.197-5.227-12.614-11.83l-0.002-0.037zM96 390.24v-83.52c0.419-6.64 5.907-11.867 12.616-11.867 0.29 0 0.577 0.010 0.862 0.029l-0.039-0.002h457.28c0.246-0.017 0.534-0.027 0.824-0.027 6.709 0 12.197 5.227 12.614 11.83l0.002 0.037v83.52c-0.419 6.64-5.907 11.867-12.616 11.867-0.29 0-0.577-0.010-0.862-0.029l0.039 0.002h-457.28c-0.246 0.017-0.534 0.027-0.824 0.027-6.709 0-12.197-5.227-12.614-11.83l-0.002-0.037zM707.68 203.2h-599.2c-0.196 0.012-0.425 0.018-0.656 0.018-6.32 0-11.484-4.952-11.822-11.188l-0.001-0.030v-85.12c0.422-6.194 5.55-11.059 11.814-11.059 0.234 0 0.467 0.007 0.698 0.020l-0.032-0.001h599.2c0.199-0.012 0.432-0.019 0.666-0.019 6.264 0 11.392 4.865 11.812 11.022l0.002 0.037v85.12c-0.34 6.266-5.503 11.218-11.824 11.218-0.231 0-0.46-0.007-0.688-0.020l0.032 0.001z" />
<glyph unicode="&#xe905;" glyph-name="align-right" d="M582.080 107.84v84.16c0.419 6.64 5.907 11.867 12.616 11.867 0.29 0 0.577-0.010 0.862-0.029l-0.039 0.002h319.040c0.246 0.017 0.534 0.027 0.824 0.027 6.709 0 12.197-5.227 12.614-11.83l0.002-0.037v-83.52c-0.419-6.64-5.907-11.867-12.616-11.867-0.29 0-0.577 0.010-0.862 0.029l0.039-0.002h-319.040c-0.263-0.019-0.57-0.031-0.879-0.031-6.484 0-11.828 4.883-12.556 11.172l-0.006 0.059zM928 306.72v83.52c-0.419 6.64-5.907 11.867-12.616 11.867-0.29 0-0.577-0.010-0.862-0.029l0.039 0.002h-805.12c-0.246 0.017-0.534 0.027-0.824 0.027-6.709 0-12.197-5.227-12.614-11.83l-0.002-0.037v-83.52c0.419-6.64 5.907-11.867 12.616-11.867 0.29 0 0.577 0.010 0.862 0.029l-0.039-0.002h805.12c0.246-0.017 0.534-0.027 0.824-0.027 6.709 0 12.197 5.227 12.614 11.83l0.002 0.037zM928 505.6v83.68c-0.419 6.64-5.907 11.867-12.616 11.867-0.29 0-0.577-0.010-0.862-0.029l0.039 0.002h-457.28c-0.246 0.017-0.534 0.027-0.824 0.027-6.709 0-12.197-5.227-12.614-11.83l-0.002-0.037v-83.52c0.419-6.64 5.907-11.867 12.616-11.867 0.29 0 0.577 0.010 0.862 0.029l-0.039-0.002h457.28c0.246-0.017 0.534-0.027 0.824-0.027 6.709 0 12.197 5.227 12.614 11.83l0.002 0.037zM316.32 692.8h599.2c0.196-0.012 0.425-0.018 0.656-0.018 6.32 0 11.484 4.952 11.822 11.188l0.001 0.030v84.96c-0.422 6.194-5.55 11.059-11.814 11.059-0.234 0-0.467-0.007-0.698-0.020l0.032 0.001h-599.2c-0.199 0.012-0.432 0.019-0.666 0.019-6.264 0-11.392-4.865-11.812-11.022l-0.002-0.037v-84.96c0.34-6.266 5.503-11.218 11.824-11.218 0.231 0 0.46 0.007 0.688 0.020l-0.032-0.001z" />
<glyph unicode="&#xe906;" glyph-name="approval" d="M848 764.64h-672c-26.51 0-48-21.49-48-48v0-476.64c0-26.51 21.49-48 48-48v0h77.28v-99.040l194.72 98.24h400c26.51 0 48 21.49 48 48v0 476.8c0.003 0.19 0.004 0.415 0.004 0.64 0 26.51-21.49 48-48 48-0.002 0-0.003 0-0.005 0v0zM448 324.64l-169.76 170.24 55.68 55.68 114.080-114.56 238.88 238.56 55.68-55.68z" />
<glyph unicode="&#xe907;" glyph-name="appsmenu" d="M128 832h192v-192h-192zM416 640h192v192h-192zM704 832v-192h192v192zM128 352h192v192h-192zM416 352h192v192h-192zM704 352h192v192h-192zM128 64h192v192h-192zM416 64h192v192h-192zM704 64h192v192h-192z" />
<glyph unicode="&#xe908;" glyph-name="arrow-down" d="M512 192l-416 420.64 90.24 91.36 3.040-2.88 322.72-326.4 325.6 329.28 90.4-91.36-416-420.64z" />
<glyph unicode="&#xe909;" glyph-name="arrow-left" d="M224 448l45.76 45.12h-0.16l375.040 370.88 91.36-90.24-2.88-3.040-326.4-322.72 329.28-325.6-91.36-90.4-420.64 416z" />
<glyph unicode="&#xe90a;" glyph-name="arrow-right" d="M800 448l-420.64-416-91.36 90.4 2.88 2.88 326.4 322.72-329.28 325.76 91.36 90.24 420.64-416z" />
<glyph unicode="&#xe90b;" glyph-name="arrow-up" d="M512 704l45.12-45.76v0.16l370.88-375.040-90.4-91.36-2.88 2.88-322.72 326.4-325.76-329.28-90.24 91.36 416 420.64z" />
<glyph unicode="&#xe90c;" glyph-name="audio" d="M142.080 631.84c-25.808-1.726-46.088-23.083-46.088-49.177 0-0.318 0.003-0.635 0.009-0.951l-0.001 0.047v-267.52c-0.030-0.632-0.047-1.372-0.047-2.117 0-25.851 20.435-46.929 46.033-47.96l0.094-0.003h108.16v368h-108.16zM602.4 810.72c-6.575 3.351-14.34 5.314-22.563 5.314-10.568 0-20.378-3.242-28.491-8.786l0.174 0.112-244.8-176h-1.6v-368h1.6l244.8-176c7.939-5.432 17.749-8.674 28.317-8.674 8.223 0 15.988 1.963 22.851 5.446l-0.288-0.133c15.699 8.108 26.246 24.216 26.246 42.787 0 0.258-0.002 0.515-0.006 0.772v-0.039 638.080c-0.193 19.177-10.58 35.886-25.994 44.986l-0.246 0.134zM795.2 173.44c-0.036 0-0.080 0-0.123 0-17.143 0-31.040 13.897-31.040 31.040 0 8.244 3.214 15.737 8.457 21.295l-0.014-0.015c56.666 57.805 92.067 136.639 93.437 223.736l0.003 0.264c-1.39 87.358-36.787 166.187-93.494 224.055l0.054-0.055c-5.176 5.536-8.355 12.997-8.355 21.2 0 17.162 13.913 31.075 31.075 31.075 8.959 0 17.033-3.791 22.704-9.857l0.016-0.018c67.078-68.835 108.838-162.623 110.078-266.16l0.002-0.24c-1.242-103.777-43.002-197.565-110.161-266.483l0.081 0.083c-5.659-6.109-13.723-9.92-22.677-9.92-0.015 0-0.030 0-0.045 0h0.002zM727.84 340.48c-17.137 0.008-31.025 13.902-31.025 31.040 0 8.090 3.095 15.458 8.166 20.983l-0.021-0.023c13.818 15.059 22.286 35.221 22.286 57.36s-8.468 42.301-22.342 57.422l0.056-0.062c-5.249 5.547-8.476 13.054-8.476 21.315 0 17.143 13.897 31.040 31.040 31.040 9.296 0 17.637-4.086 23.326-10.56l0.030-0.035c23.841-26.067 38.447-60.928 38.447-99.2s-14.606-73.133-38.548-99.312l0.101 0.112c-5.668-6.204-13.794-10.081-22.825-10.081-0.076 0-0.151 0-0.227 0.001h0.012z" />
<glyph unicode="&#xe90d;" glyph-name="back" d="M896 499.52h-574.56l289.6 289.76-67.84 67.84-405.6-405.6 405.6-405.44 67.84 67.84-289.6 289.6h574.56v96z" />
<glyph unicode="&#xe90e;" glyph-name="check" d="M870.56 768l-444.48-456-272.32 279.36-89.6-92 361.76-371.36 534.24 548-89.6 92z" />
<glyph unicode="&#xe90f;" glyph-name="client" d="M889.28 622.72h-151.36v85.6c0 49.75-40.33 90.080-90.080 90.080v0h-272c-49.75 0-90.080-40.33-90.080-90.080v0-85.6h-135.040c-39.84 0-61.6-16-61.6-54.72v-109.6h848v109.6c0 40-9.12 54.72-47.84 54.72zM349.44 708.32c0 14.404 11.676 26.080 26.080 26.080h272c14.404 0 26.080-11.676 26.080-26.080v0-85.6h-324.16zM554.080 331.36h-82.080v63.2h-382.88v-220.8c1.253-38.075 32.42-68.464 70.684-68.464 1.589 0 3.165 0.052 4.728 0.156l-0.212-0.011h711.2c40.96 0 61.6 28 61.6 68.32v220.8h-383.040z" />
<glyph unicode="&#xe910;" glyph-name="close" d="M896 151.52l-296.48 296.64 296.32 296.32-87.36 87.52-296.48-296.48-296.48 296.48-87.36-87.52 296.32-296.32-296.48-296.64 87.52-87.36 296.48 296.48 296.48-296.48 87.52 87.36z" />
<glyph unicode="&#xe911;" glyph-name="close-tag" d="M591.36 777.6l-265.92-659.2h103.52l265.92 659.2h-103.52zM326.56 337.28l-129.12 106.72 129.12 106.56v114.24l-267.36-220.8 267.36-220.8v114.080zM693.44 669.44v-114.080l132-108.96-132-108.96v-114.24l270.24 223.2-270.24 223.040z" />
<glyph unicode="&#xe912;" glyph-name="conflict-circle" d="M512 864c-229.75 0-416-186.25-416-416s186.25-416 416-416c229.75 0 416 186.25 416 416v0c0 229.75-186.25 416-416 416v0zM512 152.48c-37.025 0-67.040 30.015-67.040 67.040s30.015 67.040 67.040 67.040c37.025 0 67.040-30.015 67.040-67.040v0c-0.091-36.956-30.071-66.88-67.040-66.88 0 0 0 0 0 0v0zM565.76 353.76h-107.52l-13.44 375.84h134.24z" />
<glyph unicode="&#xe913;" glyph-name="conflict-square" d="M945.12 484l-397.12 397.12c-9.21 9.221-21.939 14.925-36 14.925s-26.79-5.704-36-14.924v-0.001l-397.12-397.12c-9.221-9.21-14.925-21.939-14.925-36s5.704-26.79 14.924-36h0.001l397.12-397.12c9.21-9.221 21.939-14.925 36-14.925s26.79 5.704 36 14.924v0.001l397.12 397.12c9.221 9.21 14.925 21.939 14.925 36s-5.704 26.79-14.924 36h-0.001zM456.48 658.4h112v-255.2h-112zM512 237.6v0c-32.949 0.362-59.52 27.156-59.52 60.157 0 33.225 26.935 60.16 60.16 60.16s60.16-26.935 60.16-60.16c0-0.055 0-0.11 0-0.165v0.008c-0.361-33.126-27.299-59.841-60.477-59.841-0.114 0-0.227 0-0.341 0.001h0.018z" />
<glyph unicode="&#xe914;" glyph-name="conflict-triangle" d="M914.080 222.72l-325.92 557.12c-20.48 34.88-47.2 52.16-74.080 52.16s-53.6-17.44-74.080-52.16l-325.6-557.12c-41.12-69.76-7.68-126.72 74.080-126.72h651.2c81.76 0 115.2 56.96 74.4 126.72zM458.56 617.12h111.040v-255.040h-112v255.040zM514.24 196.48c-32.948 0.364-59.517 27.157-59.517 60.157 0 33.225 26.935 60.16 60.16 60.16s60.16-26.935 60.16-60.16c0-0.224-0.001-0.447-0.004-0.671v0.034c-0.181-33.265-27.189-60.161-60.479-60.161-0.113 0-0.226 0-0.338 0.001h0.017z" />
<glyph unicode="&#xe915;" glyph-name="gear" d="M176 432l0.601 1.117c-9.481-16.277-17.058-33.798-22.841-53.917l-73.76-22.72v-80l74.080-22.56 0.385-1.613c5.196-18.6 12.678-36.245 21.535-51.507l-36.32-67.84 57.12-57.28 67.52 36.32-1.498 0.771c17.356-9.726 35.789-17.759 57.178-24.451l19.84-72.32h80.96l22.24 73.76 2.18 0.555c19.309 5.725 37.827 13.291 53.66 21.685l64.96-36.48 57.28 57.28-36.16 67.84-0.589-1.107c9.448 16.368 16.931 34.014 22.509 54.227l73.44 22.56v80l-73.44 22.24-0.394 1.65c-5.224 18.693-12.705 36.444-21.526 51.79l35.68 68.48-57.28 57.12-67.36-36.48 1.423-0.764c-17.064 9.927-35.204 18.209-56.303 25.244l-20.32 71.52h-80.96l-22.080-73.12-2.192-0.58c-19.305-5.934-37.806-13.706-53.648-22.3l-64.96 36.48-57.28-57.12zM258.56 316.48c0 67.335 54.585 121.92 121.92 121.92s121.92-54.585 121.92-121.92c0-67.335-54.585-121.92-121.92-121.92v0c-67.335 0-121.92 54.585-121.92 121.92 0 0.056 0 0.113 0 0.169v-0.009zM840.32 492.96l-2.24 49.12 0.49 0.325c9.245 6.476 17.738 13.953 25.43 22.395l48-8.64 25.92 51.84-36.64 33.12-0.157-0.967c1.861 9.541 2.836 19.399 2.836 29.485 0 2.125-0.043 4.239-0.119 6.041l40.16 27.52-18.080 55.84-48.8-2.080-0.317 0.47c-6.529 9.2-14.056 17.642-22.563 25.29l8.8 48-52.32 25.44-32-36.16 0.933-0.145c-9.030 1.688-18.343 2.57-27.862 2.57-2.628 0-5.24-0.067-7.471-0.185l-28 40.16-55.040-18.56 2.080-48.96-0.491-0.327c-9.24-6.483-17.732-13.96-25.429-22.393l-48 8.8-26.080-52 36.48-33.28 0.151 0.959c-1.766-9.331-2.691-18.959-2.691-28.804 0-2.305 0.051-4.599 0.14-6.555l-40.16-28 18.72-55.2 48 2.56 0.354-0.561c6.399-9.557 13.832-18.362 22.206-26.319l-8.96-48 51.84-25.76 33.28 37.12-0.945 0.151c9.253-1.774 18.807-2.703 28.577-2.703 2.38 0 4.748 0.055 6.768 0.152l28-40.48zM747.52 510.72v0zM712 512v0zM830.4 539.040v0zM636.48 551.68v0zM858.080 561.6v0zM612 577.6v0zM893.76 638.88v0zM585.28 656v0zM897.44 674.080v0zM870.72 752.96v0zM624 769.28v0zM651.52 792v0zM769.92 818.88v0zM736 820.16v0zM747.36 600.96c-36.717 0.63-66.24 30.543-66.24 67.351 0 37.202 30.158 67.36 67.36 67.36 37.199 0 67.355-30.153 67.36-67.35v0c-0.355-37.284-30.663-67.372-67.997-67.372-0.451 0-0.901 0.004-1.35 0.013l0.067-0.001z" />
<glyph unicode="&#xe916;" glyph-name="edit" d="M832 705.44l-464-464-126.080 126.56 464 464zM192.32 191.52l127.84 26.080-101.76 101.6-26.080-127.68zM127.52 128.64h768.48v-64h-768.48v64z" />
<glyph unicode="&#xe917;" glyph-name="editing" d="M896 688l-566.88-566.88-144 144 566.88 566.88zM128.32 64.16l145.44 29.76-115.68 115.84-29.76-145.6z" />
<glyph unicode="&#xe918;" glyph-name="empty-place" d="M612.48 362.88h251.52v-298.88h-704v697.28h301.6v-249.28c0-112 38.080-149.12 150.88-149.12zM680.96 586.56v21.44c-0.028 0.794-0.043 1.726-0.043 2.663 0 14.587 3.813 28.284 10.496 40.148l-0.213-0.41c9.404 13.936 21.576 25.29 35.799 33.483l0.521 0.277c11.425 6.698 21.26 14.496 29.875 23.473l0.045 0.047c5.66 6.289 9.122 14.653 9.122 23.827 0 0.117-0.001 0.234-0.002 0.351v-0.018c0.002 0.091 0.002 0.199 0.002 0.306 0 7.162-3.889 13.415-9.669 16.764l-0.093 0.050c-6.671 3.954-14.705 6.29-23.284 6.29-0.758 0-1.512-0.018-2.261-0.054l0.106 0.004c-33.583-1.899-64.487-11.822-91.31-27.864l0.91 0.504-35.68 69.76c38.171 22.71 84.137 36.186 133.242 36.32h0.038c2.439 0.147 5.29 0.231 8.16 0.231 30.502 0 58.789-9.484 82.073-25.663l-0.474 0.311c19.584-15.091 32.077-38.553 32.077-64.933 0-1.248-0.028-2.489-0.083-3.722l0.006 0.175c0.014-0.61 0.022-1.33 0.022-2.051 0-18.567-5.185-35.924-14.185-50.7l0.244 0.431c-12.227-17.793-27.725-32.423-45.739-43.31l-0.661-0.37c-12.793-7.521-23.859-15.939-33.822-25.499l0.062 0.059c-4.183-4.946-6.726-11.396-6.726-18.44 0-0.211 0.002-0.421 0.007-0.631l-0.001 0.031v-13.12zM669.92 496.8c-0.045 0.779-0.071 1.691-0.071 2.608 0 13.141 5.281 25.049 13.836 33.717l-0.005-0.005c9.773 8.060 22.423 12.948 36.215 12.948 1.445 0 2.877-0.054 4.294-0.159l-0.189 0.011c1.1 0.078 2.384 0.123 3.678 0.123 13.641 0 26.127-4.948 35.76-13.147l-0.078 0.065c8.55-8.663 13.831-20.571 13.831-33.712 0-0.918-0.026-1.829-0.077-2.734l0.006 0.125c0.053-0.828 0.083-1.796 0.083-2.77 0-13.131-5.492-24.979-14.305-33.372l-0.019-0.018c-9.6-8.021-22.075-12.891-35.686-12.891-1.123 0-2.239 0.033-3.346 0.099l0.153-0.007c-1.027-0.065-2.227-0.102-3.435-0.102-13.769 0-26.415 4.804-36.355 12.828l0.11-0.086c-8.941 8.373-14.513 20.251-14.513 33.43 0 1.129 0.041 2.249 0.121 3.358l-0.009-0.149z" />
<glyph unicode="&#xe919;" glyph-name="equipment" d="M884.48 551.52l-72.96 13.76c-2.56 7.040-5.44 13.92-8.64 20.8l42.4 61.92c5.731 8.467 9.149 18.908 9.149 30.147 0 14.81-5.935 28.233-15.557 38.021l0.007-0.008-66.24 66.24c-9.8 9.589-23.226 15.506-38.034 15.506-11.429 0-22.035-3.524-30.79-9.546l0.184 0.12-61.6-42.88c-6.88 2.88-13.76 5.28-20.64 7.68h-1.92l-13.6 70.4c-4.951 23.234-25.3 40.408-49.661 40.408-1.048 0-2.089-0.032-3.121-0.094l0.142 0.007h-93.76c-0.979 0.067-2.121 0.106-3.273 0.106-24.137 0-44.336-16.86-49.462-39.446l-0.065-0.34-13.76-69.6c-6.88-2.56-13.76-5.44-20.32-8.48l-60.96 41.6c-8.49 5.743-18.956 9.168-30.223 9.168-14.839 0-28.291-5.942-38.106-15.576l0.008 0.008-66.56-66.24c-9.645-9.81-15.6-23.274-15.6-38.13 0-11.185 3.376-21.582 9.164-30.227l-0.124 0.197 41.6-61.44-0.96-2.080c-2.88-5.92-5.76-11.84-8.16-18.080l-75.040-13.92c-26.051-4.634-45.899-26.118-47.987-52.598l-0.013-0.202v-93.76c2.087-26.725 21.929-48.258 47.645-52.907l0.355-0.053 76.96-13.76c2.72-7.2 5.6-14.4 8.8-21.28l-41.76-60.96c-5.743-8.49-9.168-18.956-9.168-30.223 0-14.839 5.942-28.291 15.576-38.106l-0.008 0.008 66.24-66.56c9.849-9.734 23.395-15.747 38.345-15.747 11.090 0 21.408 3.309 30.019 8.994l-0.204-0.127 60.48 40.48 5.44-2.88c4.64-2.4 9.44-4.96 14.4-7.040l13.92-77.76c4.64-24.8 27.040-51.52 52.8-51.52h93.76c25.76 0 48 26.72 52.8 51.68l13.6 80c6.4 2.4 32 13.44 32 13.44l-48 54.080-43.52-16-19.52-102.72h-68.48l-18.88 103.040-20.16 8.96c-17.859 5.524-33.224 12.094-47.736 20.029l1.336-0.669-19.040 9.92-84.16-57.6-48 48 57.28 84.32-10.88 18.24c-8.13 13.988-15.493 30.226-21.206 47.221l-0.554 1.899-9.6 19.040-106.88 19.2v68.48l105.92 18.72 12.96 18.080 1.12 2.4c5.429 17.967 11.952 33.447 19.865 48.064l-0.665-1.344 9.92 18.4-58.080 84.96 48 48 84.96-57.6 18.56 9.92c13.188 7.204 28.564 13.673 44.624 18.574l1.776 0.466 20.32 5.12 19.2 100.16h68.64l18.88-99.68 20.16-3.84c18.424-5.541 34.331-12.283 49.313-20.5l-1.313 0.66 18.4-9.92 85.44 58.56 48-48-57.76-85.28 9.12-18.72c6.711-13 12.761-28.241 17.316-44.114l0.444-1.806 2.88-21.92 96-19.2v-68.64l-92-17.6-14.56-50.080 55.2-45.92s11.52 25.44 15.040 34.56l72.8 13.44c24.896 5.214 43.351 26.908 43.52 52.942v93.778c-0.183 26.009-18.644 47.653-43.168 52.739l-0.352 0.061zM459.84 848v0zM912 404.96v0zM912 498.72v0zM909.6 75.68l-25.28-25.6c-30.72-30.72-64 0.8-64 0.8l-266.88 260.96c-29.76 29.76-51.84 8.16-51.84 8.16v0c-24-16-55.2-3.36-75.68 17.12l-100.32 104c-11.287 9.313-18.427 23.303-18.427 38.96s7.14 29.647 18.341 38.891l0.086 0.069s22.72 8.8 32-23.2v0s3.68-4 20.64-20.96c0 0 33.6-29.92 63.040-28.8s40.32 3.2 53.12 16 12 21.12 13.28 54.56-46.080 69.44-46.080 69.44c-7.923 8.034-18.205 13.723-29.722 15.943l-0.358 0.057c-48 1.92-11.040 32.8-11.040 32.8 11.863 11.438 28.029 18.485 45.84 18.485s33.977-7.047 45.86-18.505l-0.020 0.019 101.6-100.32c11.526-11.427 18.663-27.267 18.663-44.774 0-9.898-2.281-19.264-6.347-27.6l0.164 0.373s-16-25.12 17.76-59.2l258.88-257.6c33.28-33.76 15.36-60.48 6.72-70.080z" />
<glyph unicode="&#xe91a;" glyph-name="accessories" d="M852.48 480c1.241 10.235 1.994 22.179 2.079 34.282l0.001 0.118v66.88c0.004 0.623 0.007 1.359 0.007 2.096 0 171.544-138.159 310.818-309.276 312.622l-0.171 0.001h-65.12c-171.289-1.803-309.451-141.079-309.451-312.624 0-0.906 0.004-1.811 0.012-2.714l-0.001 0.138v-67.040c-0.010-0.953-0.016-2.080-0.016-3.208 0-10.758 0.529-21.393 1.562-31.88l-0.106 1.328c-21.454-21.503-34.72-51.183-34.72-83.962 0-0.070 0-0.139 0-0.209v0.011-131.52c-0.003-0.287-0.004-0.627-0.004-0.967 0-64.323 51.783-116.552 115.936-117.272l0.068-0.001h58.24c17.673 0 32 14.327 32 32v0 304c0 17.673-14.327 32-32 32v0h-58.24c-7.305-0.011-14.44-0.71-21.352-2.033l0.712 0.113s0 1.6 0 2.4v66.72c-0.006 0.62-0.009 1.354-0.009 2.089 0 137.034 110.5 248.258 247.257 249.431l0.111 0.001h65.76c136.313-1.89 246.089-112.834 246.089-249.417 0-0.739-0.003-1.478-0.010-2.216l0.001 0.113v-67.040s0-1.6 0-2.4c-6.2 1.21-13.335 1.909-20.63 1.92h-58.25c-17.673 0-32-14.327-32-32v0-304c0-17.673 14.327-32 32-32v0h65.92c-25.052-63.238-83.956-107.954-153.769-111.978l-0.471-0.022c0.048 0.836 0.075 1.815 0.075 2.8s-0.027 1.964-0.081 2.935l0.006-0.135c-0.091 29.831-24.249 53.989-54.071 54.080h-97.609c-28.575-1.604-51.14-25.167-51.14-54s22.564-52.396 50.998-53.994l0.141-0.006h142.56c107.608 0.295 197.351 76.421 218.624 177.741l0.256 1.459c32.021 21.599 52.8 57.742 52.8 98.737 0 0.106 0 0.213 0 0.319v-0.016 132.16c0 0.059 0 0.129 0 0.198 0 32.779-13.266 62.459-34.722 83.964l0.002-0.002z" />
<glyph unicode="&#xe91b;" glyph-name="feedback" d="M853.543 802.462h-683.087c-37.587 0-68.057-30.47-68.057-68.057v0-460.17c0-37.587 30.47-68.057 68.057-68.057v0h55.926v-117.366l230.321 117.366h396.997c37.519 0.090 67.899 30.525 67.899 68.056 0 0 0 0 0 0v0 460.17c0 37.587-30.47 68.057-68.057 68.057v0zM757.76 351.744h-504.123c-17.401 0-31.508 14.106-31.508 31.508s14.106 31.508 31.508 31.508v0h504.123c17.401 0 31.508-14.106 31.508-31.508s-14.106-31.508-31.508-31.508v0zM761.226 481.713h-506.959c-17.401 0-31.508 14.106-31.508 31.508s14.106 31.508 31.508 31.508v0h506.801c17.401 0 31.508-14.106 31.508-31.508s-14.106-31.508-31.508-31.508v0zM761.226 612.155h-506.959c-17.401 0-31.508 14.106-31.508 31.508s14.106 31.508 31.508 31.508v0h506.801c17.401 0 31.508-14.106 31.508-31.508s-14.106-31.508-31.508-31.508v0zM394.791 480.768h63.015v-63.015h-63.015v63.015z" />
<glyph unicode="&#xe91c;" glyph-name="flight" d="M537.28 369.12l147.84-287.2 69.6 52.16-52.16 382.88-3.36 3.36s99.52 110.4 133.92 144 86.72 119.36 50.88 155.2-122.080-17.6-155.2-50.88-144-133.92-144-133.92l-3.36 3.36-384 51.68-51.68-68.32 287.2-148 2.080-2.080-113.12-154.24-158.56 8.32-35.36-34.72v-34.72l156.64-34.88 35.36-157.12h34.88l34.88 34.88-8.32 158.72 154.24 113.12z" />
<glyph unicode="&#xe91d;" glyph-name="forward" d="M128.32 403.52h574.4l-289.6-289.6 68-67.84 405.44 405.6-405.44 405.44-68-67.84 289.76-289.76h-574.56v-96z" />
<glyph unicode="&#xe91e;" glyph-name="heart" d="M313.12 738.080c60.96 0 112-60.96 131.2-87.2l64-88.8 64 88.8c19.040 26.24 70.080 87.2 131.2 87.2 14.657-0.156 28.548-3.26 41.165-8.745l-0.685 0.265c24.31-10.498 44.361-26.951 58.909-47.565l0.291-0.435 1.44-1.92 1.44-1.76c23.653-30.437 37.919-69.192 37.919-111.279 0-17.867-2.571-35.134-7.364-51.45l0.324 1.289c-16-61.12-66.88-138.88-139.2-213.6-54.542-57.077-116.625-106.272-184.813-146.165l-3.987-2.155c-72.175 42.048-134.258 91.243-188.496 147.999l-0.304 0.321c-72.32 74.72-122.88 152.64-139.2 213.6-4.341 15.001-6.838 32.232-6.838 50.047 0 31.725 7.919 61.6 21.887 87.757l-0.489-1.003 0.8 1.44v1.6c15.512 33.046 42.028 58.785 74.733 72.916l0.947 0.364c11.931 5.224 25.823 8.329 40.423 8.48h0.057zM312.48 818.080c-25.559-0.151-49.845-5.431-71.935-14.861l1.215 0.461c-51.469-22.241-92.068-61.544-115.417-110.637l-0.583-1.363c-19.211-35.915-30.496-78.562-30.496-123.845 0-25.573 3.599-50.305 10.318-73.718l-0.462 1.883c42.56-160 246.88-359.52 404.8-431.040v0h0.96c158.24 71.52 362.080 271.040 404.64 431.040 6.122 21.112 9.643 45.363 9.643 70.437 0 61.208-20.982 117.514-56.146 162.12l0.424-0.557c-23.502 33.344-55.33 59.363-92.506 75.301l-1.414 0.539c-20.876 8.961-45.16 14.24-70.659 14.4h-0.061c-78.88 0-147.2-53.44-195.84-120.16-48 66.72-116.96 120.16-195.84 120.16z" />
<glyph unicode="&#xe91f;" glyph-name="heartfilled" d="M870.88 728c-23.502 33.344-55.33 59.363-92.506 75.301l-1.414 0.539c-108.48 44.16-204-19.84-266.56-105.92-62.4 86.080-158.4 150.080-266.56 105.92-51.469-22.241-92.068-61.544-115.417-110.637l-0.583-1.363c-19.49-36.13-30.944-79.075-30.944-124.696 0-25.321 3.528-49.817 10.12-73.025l-0.457 1.88c42.56-160 246.4-359.2 404.64-430.72v0h0.8c158.4 71.2 362.4 270.72 404.8 430.72 6.148 21.156 9.685 45.459 9.685 70.588 0 61.14-20.936 117.391-56.030 161.973l0.426-0.561z" />
<glyph unicode="&#xe920;" glyph-name="tiles" d="M176.64 783.36h271.84v-272h-271.84v272zM577.44 783.36h271.84v-272h-271.84v272zM176.64 382.56h271.84v-272h-271.84v272zM577.44 382.56h271.84v-272h-271.84v272z" />
<glyph unicode="&#xe921;" glyph-name="cell-phone" d="M686.88 851.68h-353.12c-35.346 0-64-28.654-64-64v0-672.64c0-35.346 28.654-64 64-64v0h353.12c35.346 0 64 28.654 64 64v0 673.12c-0.272 35.139-28.821 63.52-63.998 63.52-0.001 0-0.001 0-0.002 0v0zM516.32 105.44h-12.16c-13.642 1.86-24.043 13.435-24.043 27.44s10.401 25.58 23.899 27.424l0.144 0.016h12.16c13.642-1.86 24.043-13.435 24.043-27.44s-10.401-25.58-23.899-27.424l-0.144-0.016zM334.24 195.84v592h352v-592z" />
<glyph unicode="&#xe922;" glyph-name="chair" d="M409.12 392.48h206.080c0.772-0.018 1.682-0.028 2.594-0.028 64.299 0 116.611 51.325 118.203 115.241l0.003 0.148v273.28c-1.856 63.853-54.062 114.909-118.193 114.909-0.917 0-1.831-0.010-2.742-0.031l0.136 0.002h-206.080c-0.871 0.023-1.898 0.036-2.927 0.036-64.133 0-116.341-51.060-118.189-114.746l-0.004-0.171v-273.28c1.59-64.067 53.904-115.396 118.206-115.396 1.025 0 2.046 0.013 3.065 0.039l-0.151-0.003zM256 449.12v125.12c0 26.819-21.741 48.56-48.56 48.56s-48.56-21.741-48.56-48.56v0-125.12c0-26.819 21.741-48.56 48.56-48.56s48.56 21.741 48.56 48.56v0zM814.24 611.040h4.32c25.184 0 45.6-20.416 45.6-45.6v-127.36c0-25.184-20.416-45.6-45.6-45.6h-4.32c-25.184 0-45.6 20.416-45.6 45.6v127.36c0 25.184 20.416 45.6 45.6 45.6zM778.88 354.24h-534.56c-1.19 0.102-2.575 0.16-3.974 0.16-27.305 0-49.44-22.135-49.44-49.44s22.135-49.44 49.44-49.44c1.399 0 2.784 0.058 4.154 0.172l-0.179-0.012h234.080v-88.16h-144c-42.72 0-92.48-16-106.56-80-12.061-8.827-19.806-22.933-19.806-38.847 0-26.51 21.49-48 48-48s48 21.49 48 48c0 12.3-4.626 23.519-12.234 32.013l0.040-0.046c5.12 16 16.96 23.36 42.88 23.36h341.6c20 0 34.080-4.64 41.28-22.24-8.349-8.625-13.494-20.395-13.494-33.367 0-26.51 21.49-48 48-48s48 21.49 48 48c0 14.617-6.534 27.708-16.839 36.512l-0.066 0.055c-16 73.92-77.92 83.040-106.88 83.040h-133.92v88h236.48c1.19-0.102 2.575-0.16 3.974-0.16 27.305 0 49.44 22.135 49.44 49.44s-22.135 49.44-49.44 49.44c-1.399 0-2.784-0.058-4.154-0.172l0.179 0.012z" />
<glyph unicode="&#xe923;" glyph-name="microprocessor" d="M675.52 729.28h-327.36c-64.735-0.091-117.189-52.545-117.28-117.271v-327.369c0.091-64.735 52.545-117.189 117.271-117.28h327.369c64.735 0.091 117.189 52.545 117.28 117.271v327.369c-0.091 64.735-52.545 117.189-117.271 117.28h-0.009zM693.44 284.64c-0.090-9.861-8.059-17.83-17.911-17.92h-327.369c-9.861 0.090-17.83 8.059-17.92 17.911v327.369c0.090 9.861 8.059 17.83 17.911 17.92h327.369c9.861-0.090 17.83-8.059 17.92-17.911v-0.009zM395.040 863.68h57.92v-95.68h-57.92v95.68zM482.88 863.68h57.92v-95.68h-57.92v95.68zM570.72 863.68h57.92v-95.68h-57.92v95.68zM658.72 863.68h57.92v-95.68h-57.92v95.68zM307.040 863.68h57.92v-95.68h-57.92v95.68zM395.040 127.52h57.92v-95.52h-57.92v95.52zM482.88 127.52h57.92v-95.52h-57.92v95.52zM570.72 127.52h57.92v-95.52h-57.92v95.52zM658.72 127.52h57.92v-95.52h-57.92v95.52zM307.040 127.52h57.92v-95.52h-57.92v95.52zM96.16 388.96h95.36v-57.92h-95.36v57.92zM96.16 476.8h95.36v-57.92h-95.36v57.92zM96.16 564.8h95.36v-57.92h-95.36v57.92zM96.16 652.64h95.36v-57.92h-95.36v57.92zM96.16 300.96h95.36v-57.92h-95.36v57.92zM832.8 388.96h94.88v-57.92h-94.88v57.92zM832.8 476.8h94.88v-57.92h-94.88v57.92zM832.8 564.8h94.88v-57.92h-94.88v57.92zM832.8 652.64h94.88v-57.92h-94.88v57.92zM832.8 300.96h94.88v-57.92h-94.88v57.92z" />
<glyph unicode="&#xe924;" glyph-name="desk-console" d="M872.96 790.080h-722.56c-0.095 0-0.208 0.001-0.32 0.001-38.704 0-70.080-31.376-70.080-70.080 0 0 0-0.001 0-0.001v0-537.6c0-0.095-0.001-0.208-0.001-0.321 0-38.704 31.376-70.080 70.080-70.080 0.113 0 0.226 0 0.338 0.001h722.543c38.579 0.091 69.829 31.341 69.92 69.911v538.089c0 0 0 0 0 0 0 38.648-31.285 69.989-69.911 70.080h-0.009zM314.56 251.040h-74.56v156.32h75.040zM352 444.8h-150.080v93.92h38.080v112h75.040v-112h36.96zM558.4 251.040h-74.88v51.36h75.040zM596.16 336h-150.24v93.6h37.6v221.76h75.040v-221.76h37.6zM784 251.040h-75.36v265.44h75.36zM821.6 557.28h-150.4v94.080h150.080z" />
<glyph unicode="&#xe925;" glyph-name="docking-station" d="M901.6 626.88h-134.4c-12.327-0.048-22.682-8.437-25.718-19.813l-0.042-0.187-21.44-78.88h-408.96l-23.040 80c-3.281 11.191-13.405 19.245-25.427 19.36h-139.693c-0.002 0-0.005 0-0.008 0-14.845 0-26.88-12.035-26.88-26.88 0-0.225 0.003-0.449 0.008-0.673l-0.001 0.033v-361.76c0-0.048 0-0.105 0-0.162 0-14.733 11.853-26.698 26.543-26.878h779.057c14.638 0.269 26.401 12.199 26.401 26.876 0 0.058 0 0.115-0.001 0.173v-0.009 361.76c0 0.049 0.001 0.107 0.001 0.164 0 14.677-11.763 26.606-26.375 26.875h-0.025zM482.72 434.88h96c14.934 0 27.040-12.106 27.040-27.040s-12.106-27.040-27.040-27.040h-96c-14.934 0-27.040 12.106-27.040 27.040s12.106 27.040 27.040 27.040v0zM493.76 299.040h-11.040c-14.934 0-27.040 12.106-27.040 27.040s12.106 27.040 27.040 27.040h11.040c14.934 0 27.040-12.106 27.040-27.040s-12.106-27.040-27.040-27.040v0zM580.32 299.040h-10.080c-14.934 0-27.040 12.106-27.040 27.040s12.106 27.040 27.040 27.040h10.080c14.934 0 27.040-12.106 27.040-27.040s-12.106-27.040-27.040-27.040v0zM667.2 299.040h-10.24c-14.934 0-27.040 12.106-27.040 27.040s12.106 27.040 27.040 27.040h10.24c14.934 0 27.040-12.106 27.040-27.040s-12.106-27.040-27.040-27.040v0zM667.2 380.8h-10.24c-14.934 0-27.040 12.106-27.040 27.040s12.106 27.040 27.040 27.040h10.24c14.934 0 27.040-12.106 27.040-27.040s-12.106-27.040-27.040-27.040v0zM798.24 299.040h-56.96c-14.934 0-27.040 12.106-27.040 27.040s12.106 27.040 27.040 27.040h56.96c14.934 0 27.040-12.106 27.040-27.040s-12.106-27.040-27.040-27.040v0zM798.24 380.8h-56.96c-14.934 0-27.040 12.106-27.040 27.040s12.106 27.040 27.040 27.040h56.96c14.934 0 27.040-12.106 27.040-27.040s-12.106-27.040-27.040-27.040v0z" />
<glyph unicode="&#xe926;" glyph-name="mobile-device" d="M764.96 877.44h-506.72c-0.001 0-0.001 0-0.002 0-36.415 0-65.966-29.384-66.238-65.734v-730.106c0.362-36.307 29.879-65.6 66.237-65.6 0.001 0 0.002 0 0.003 0h506.72c0.239-0.003 0.521-0.005 0.803-0.005 36.36 0 65.878 29.296 66.237 65.571v730.114c-0.269 36.378-29.822 65.765-66.238 65.765-0.282 0-0.563-0.002-0.844-0.005h0.043zM520 62.88h-16c-13.741 0-24.88 11.139-24.88 24.88s11.139 24.88 24.88 24.88v0h16c13.741 0 24.88-11.139 24.88-24.88s-11.139-24.88-24.88-24.88v0zM258.88 155.84v656h506.080v-656z" />
<glyph unicode="&#xe927;" glyph-name="monitor" d="M891.2 788.96h-753.44c-26.51 0-48-21.49-48-48v0-445.92c0-26.51 21.49-48 48-48v0h753.44c26.51 0 48 21.49 48 48v0 445.92c0 26.51-21.49 48-48 48v0zM875.2 724.96v-362.080h-721.44v362.080zM749.6 172.64h-101.44v38.72h-267.36v-38.72h-101.44c-13.608 0-24.64-11.032-24.64-24.64v0-20c0-13.608 11.032-24.64 24.64-24.64v0h470.24c13.608 0 24.64 11.032 24.64 24.64v0 20c0 13.608-11.032 24.64-24.64 24.64v0z" />
<glyph unicode="&#xe928;" glyph-name="network-equipment" d="M512 897.12c-1.212 0.012-2.645 0.019-4.080 0.019-247.434 0-448.019-200.585-448.019-448.019 0-245.999 198.266-445.691 443.72-447.998l0.219-0.002h2.4c118.080 0 204.32 45.12 236.8 123.36 7.896 19.878 12.474 42.911 12.474 67.013 0 43.539-14.94 83.588-39.974 115.301l0.3-0.394 22.56 22.56c2.758 2.87 4.456 6.776 4.456 11.078 0 1.759-0.284 3.452-0.808 5.035l0.032-0.113-59.52 165.76c-0.823 2.311-2.079 4.288-3.682 5.922l0.002-0.002-105.92 105.76c-2.884 2.828-6.838 4.574-11.2 4.574s-8.316-1.746-11.203-4.576l0.003 0.003-84.8 84.8c-2.892 2.875-6.878 4.653-11.28 4.653s-8.388-1.777-11.281-4.653l0.001 0.001-168.64-168.32c-2.875-2.892-4.653-6.878-4.653-11.28s1.777-8.388 4.653-11.281l84.799-84.799c-2.828-2.884-4.574-6.838-4.574-11.2s1.746-8.316 4.576-11.203l105.917-105.917c1.623-1.662 3.6-2.97 5.81-3.804l0.11-0.036 166.24-59.36c1.434-0.467 3.084-0.736 4.797-0.736 4.363 0 8.319 1.747 11.205 4.579l-0.003-0.002 16 16c13.729-19.269 21.949-43.29 21.949-69.232 0-15.374-2.887-30.074-8.149-43.587l0.281 0.819c-22.080-53.28-87.040-83.84-178.24-84-209.257 3.663-377.487 174.158-377.487 383.945 0 212.077 171.923 384 384 384s384-171.923 384-384c0-80.158-24.561-154.58-66.567-216.15l0.854 1.325c-3.902-5.242-6.247-11.844-6.247-18.994 0-17.673 14.327-32 32-32 11.436 0 21.47 5.999 27.129 15.021l0.078 0.134c48.583 70.576 77.595 157.9 77.595 252 0 247.424-200.576 448-448 448-0.224 0-0.447 0-0.67 0h0.035zM330.72 549.6l37.28-37.6 22.56 22.56-37.44 37.44 16.8 16.8 37.44-37.44 22.56 22.56-37.44 37.44 16 16 37.44-37.44 22.56 22.56-36.48 38.4 22.56 22.56 73.44-73.44-37.76-37.76c-2.875-2.892-4.653-6.878-4.653-11.28s1.777-8.388 4.653-11.281l71.519-71.519-48-48-71.52 71.52c-2.892 2.875-6.878 4.653-11.28 4.653s-8.388-1.777-11.281-4.653l-37.759-37.759-73.44 74.080z" />
<glyph unicode="&#xe929;" glyph-name="printer" d="M896 598.88h-73.92v151.52c0 16.436-13.324 29.76-29.76 29.76v0h-562.4c-16.436 0-29.76-13.324-29.76-29.76v0-151.52h-72.16c-16.436 0-29.76-13.324-29.76-29.76v0-208c0-0.048 0-0.104 0-0.16 0-16.436 13.324-29.76 29.76-29.76 0 0 0 0 0 0h90.24v-185.6c0-16.436 13.324-29.76 29.76-29.76v0h526.080c16.436 0 29.76 13.324 29.76 29.76v0 185.6h92.16c16.436 0 29.76 13.324 29.76 29.76v0 208c0 0.048 0 0.104 0 0.16 0 16.436-13.324 29.76-29.76 29.76 0 0 0 0 0 0v0zM259.68 720h502.88v-121.76h-502.88zM744.32 176h-466.4v229.76h466.4zM334.56 307.2h353.44c16.436 0 29.76 13.324 29.76 29.76s-13.324 29.76-29.76 29.76h-353.44c-16.436 0-29.76-13.324-29.76-29.76s13.324-29.76 29.76-29.76v0zM334.56 212h353.44c16.569 0 30 13.431 30 30s-13.431 30-30 30v0h-353.44c-16.436 0-29.76-13.324-29.76-29.76s13.324-29.76 29.76-29.76v0zM336 700.64h-23.52c-16.436 0-29.76-13.324-29.76-29.76s13.324-29.76 29.76-29.76h23.52c16.436 0 29.76 13.324 29.76 29.76s-13.324 29.76-29.76 29.76v0z" />
<glyph unicode="&#xe92a;" glyph-name="router" d="M520.96 553.44c-3.884 3.904-9.26 6.319-15.2 6.319s-11.316-2.416-15.199-6.318l-48.001-48.001c-3.89-3.89-6.296-9.264-6.296-15.2 0-11.872 9.624-21.496 21.496-21.496 5.936 0 11.31 2.406 15.2 6.296l11.68 11.68v-65.12c0-11.841 9.599-21.44 21.44-21.44s21.44 9.599 21.44 21.44v0 64.8l11.68-11.68c3.89-3.89 9.264-6.296 15.2-6.296 11.872 0 21.496 9.624 21.496 21.496 0 5.936-2.406 11.31-6.296 15.2v0zM728.96 645.44l-48 48c-3.89 3.89-9.264 6.296-15.2 6.296-11.872 0-21.496-9.624-21.496-21.496 0-5.936 2.406-11.31 6.296-15.2l11.68-11.68h-65.44c-11.841 0-21.44-9.599-21.44-21.44s9.599-21.44 21.44-21.44h65.12l-11.68-11.68c-3.89-3.89-6.296-9.264-6.296-15.2 0-11.872 9.624-21.496 21.496-21.496 5.936 0 11.31 2.406 15.2 6.296l48 48c3.904 3.884 6.319 9.26 6.319 15.2s-2.416 11.316-6.318 15.199l-0.001 0.001zM444.8 630.24c0 11.841-9.599 21.44-21.44 21.44v0h-73.76l11.68 11.68c3.89 3.89 6.296 9.264 6.296 15.2 0 11.872-9.624 21.496-21.496 21.496-5.936 0-11.31-2.406-15.2-6.296l-48-48c-3.904-3.884-6.319-9.26-6.319-15.2s2.416-11.316 6.318-15.199l48.001-48.001c3.89-3.89 9.264-6.296 15.2-6.296 11.872 0 21.496 9.624 21.496 21.496 0 5.936-2.406 11.31-6.296 15.2l-11.68 11.68h73.76c0.003 0 0.006 0 0.010 0 11.616 0 21.074 9.238 21.43 20.767l0.001 0.033zM492.48 696c3.884-3.904 9.26-6.319 15.2-6.319s11.316 2.416 15.199 6.318l48.001 48.001c3.89 3.89 6.296 9.264 6.296 15.2 0 11.872-9.624 21.496-21.496 21.496-5.936 0-11.31-2.406-15.2-6.296v0l-11.68-11.68v73.92c0 11.841-9.599 21.44-21.44 21.44s-21.44-9.599-21.44-21.44v0-73.76l-11.68 11.68c-3.89 3.89-9.264 6.296-15.2 6.296-11.872 0-21.496-9.624-21.496-21.496 0-5.936 2.406-11.31 6.296-15.2v0zM853.28 349.28h-682.24c-24.587-0.088-44.485-20.040-44.485-44.64 0-0.225 0.002-0.45 0.005-0.674v0.034-163.36c0 0 0 0 0 0 0-24.598 19.895-44.549 44.471-44.64h682.249c24.529 0.091 44.389 19.951 44.48 44.471v163.529c0.003 0.19 0.005 0.415 0.005 0.64 0 24.599-19.898 44.551-44.476 44.64h-0.008zM325.28 196h-72c-14.757 0-26.72 11.963-26.72 26.72s11.963 26.72 26.72 26.72h71.52c14.757 0 26.72-11.963 26.72-26.72s-11.963-26.72-26.72-26.72v0zM426.080 196h-7.52c-14.757 0-26.72 11.963-26.72 26.72s11.963 26.72 26.72 26.72h7.52c14.757 0 26.72-11.963 26.72-26.72s-11.963-26.72-26.72-26.72v0z" />
<glyph unicode="&#xe92b;" glyph-name="server" d="M857.28 768.96h-690.080c-0.386 0.014-0.84 0.022-1.296 0.022-20.557 0-37.293-16.357-37.903-36.766l-0.001-0.056v-122.72c0.619-20.459 17.352-36.809 37.904-36.809 0.287 0 0.573 0.003 0.859 0.010l-0.042-0.001h690.56c0.243-0.006 0.529-0.009 0.816-0.009 20.552 0 37.285 16.35 37.902 36.752l0.001 0.057v122.72c-0.619 20.459-17.352 36.809-37.904 36.809-0.287 0-0.573-0.003-0.859-0.010l0.042 0.001zM286.4 643.2h-51.84c-0.63-0.051-1.363-0.080-2.103-0.080-15.287 0-27.68 12.393-27.68 27.68s12.393 27.68 27.68 27.68c0.74 0 1.473-0.029 2.199-0.086l-0.096 0.006h51.84c0.63 0.051 1.363 0.080 2.103 0.080 15.287 0 27.68-12.393 27.68-27.68s-12.393-27.68-27.68-27.68c-0.74 0-1.473 0.029-2.199 0.086l0.096-0.006zM857.28 545.76h-690.080c-0.388 0.014-0.843 0.022-1.301 0.022-20.5 0-37.201-16.268-37.897-36.599l-0.002-0.064v-122.72c0.619-20.459 17.352-36.809 37.904-36.809 0.287 0 0.573 0.003 0.859 0.010l-0.042-0.001h690.56c0.244-0.006 0.533-0.009 0.821-0.009 20.496 0 37.193 16.26 37.897 36.585l0.002 0.064v122.88c-0.705 20.389-17.403 36.649-37.899 36.649-0.289 0-0.577-0.003-0.864-0.010l0.043 0.001zM286.4 420.16h-51.84c-0.63-0.051-1.363-0.080-2.103-0.080-15.287 0-27.68 12.393-27.68 27.68s12.393 27.68 27.68 27.68c0.74 0 1.473-0.029 2.199-0.086l-0.096 0.006h51.84c0.63 0.051 1.363 0.080 2.103 0.080 15.287 0 27.68-12.393 27.68-27.68s-12.393-27.68-27.68-27.68c-0.74 0-1.473 0.029-2.199 0.086l0.096-0.006zM857.28 323.36h-690.080c-0.386 0.014-0.84 0.022-1.296 0.022-20.557 0-37.293-16.357-37.903-36.766l-0.001-0.056v-122.72c0.619-20.459 17.352-36.809 37.904-36.809 0.287 0 0.573 0.003 0.859 0.010l-0.042-0.001h690.56c0.243-0.006 0.529-0.009 0.816-0.009 20.552 0 37.285 16.35 37.902 36.752l0.001 0.057v122.72c-0.619 20.459-17.352 36.809-37.904 36.809-0.287 0-0.573-0.003-0.859-0.010l0.042 0.001zM286.4 197.6h-51.84c-0.63-0.051-1.363-0.080-2.103-0.080-15.287 0-27.68 12.393-27.68 27.68s12.393 27.68 27.68 27.68c0.74 0 1.473-0.029 2.199-0.086l-0.096 0.006h51.84c0.63 0.051 1.363 0.080 2.103 0.080 15.287 0 27.68-12.393 27.68-27.68s-12.393-27.68-27.68-27.68c-0.74 0-1.473 0.029-2.199 0.086l0.096-0.006z" />
<glyph unicode="&#xe92c;" glyph-name="switcher" d="M385.6 501.28h-75.68l4.32-4c4.772-4.438 7.748-10.751 7.748-17.76 0-13.381-10.847-24.228-24.228-24.228-6.372 0-12.17 2.46-16.495 6.482l0.015-0.014-49.44 45.92c-4.791 4.428-7.781 10.745-7.781 17.76s2.99 13.332 7.764 17.745l0.016 0.015 49.44 45.92c4.31 4.008 10.108 6.468 16.48 6.468 13.381 0 24.228-10.847 24.228-24.228 0-7.009-2.976-13.322-7.733-17.746l-0.015-0.014-4.32-4h58.080l279.52 236.96h66.88l-4.32 4c-4.772 4.438-7.748 10.751-7.748 17.76 0 13.381 10.847 24.228 24.228 24.228 6.372 0 12.17-2.46 16.495-6.482l-0.015 0.014 49.44-45.92c4.791-4.428 7.781-10.745 7.781-17.76s-2.99-13.332-7.764-17.745l-0.016-0.015-49.44-45.92c-4.31-4.008-10.108-6.468-16.48-6.468-13.381 0-24.228 10.847-24.228 24.228 0 7.009 2.976 13.322 7.733 17.746l0.015 0.014 4.32 4h-49.12zM583.52 618.88l81.76-69.28h49.12l-4.32 4c-4.772 4.438-7.748 10.751-7.748 17.76 0 13.381 10.847 24.228 24.228 24.228 6.372 0 12.17-2.46 16.495-6.482l-0.015 0.014 49.44-45.92c4.791-4.428 7.781-10.745 7.781-17.76s-2.99-13.332-7.764-17.745l-0.016-0.015-49.44-45.92c-4.31-4.008-10.108-6.468-16.48-6.468-13.381 0-24.228 10.847-24.228 24.228 0 7.009 2.976 13.322 7.733 17.746l0.015 0.014 4.32 4h-66.88l-100.96 85.44c4.64 2.88 36.96 32.16 36.96 32.16zM449.6 668.96l-81.6 69.28h-58.080l4.32-4c4.772-4.438 7.748-10.751 7.748-17.76 0-13.381-10.847-24.228-24.228-24.228-6.372 0-12.17 2.46-16.495 6.482l0.015-0.014-49.44 45.92c-4.791 4.428-7.781 10.745-7.781 17.76s2.99 13.332 7.764 17.745l0.016 0.015 49.44 45.92c4.31 4.008 10.108 6.468 16.48 6.468 13.381 0 24.228-10.847 24.228-24.228 0-7.009-2.976-13.322-7.733-17.746l-0.015-0.014-4.32-4h75.68l101.76-86.24zM852.48 348.16h-680.96c0 0-0.001 0-0.001 0-24.453 0-44.297-19.732-44.479-44.143v-164.177c0.361-24.289 20.135-43.84 44.475-43.84 0.002 0 0.003 0 0.005 0h680.96c24.566 0 44.48 19.914 44.48 44.48v0 163.52c-0.181 24.428-20.026 44.16-44.479 44.16 0 0-0.001 0-0.001 0v0zM324.48 195.2h-71.040c-14.757 0-26.72 11.963-26.72 26.72s11.963 26.72 26.72 26.72h71.36c14.757 0 26.72-11.963 26.72-26.72s-11.963-26.72-26.72-26.72v0zM425.12 195.2h-7.52c-14.757 0-26.72 11.963-26.72 26.72s11.963 26.72 26.72 26.72h7.52c14.757 0 26.72-11.963 26.72-26.72s-11.963-26.72-26.72-26.72v0z" />
<glyph unicode="&#xe92d;" glyph-name="ups" d="M805.6 800h-588.16c-31.819-0.451-57.44-26.351-57.44-58.235 0-0.058 0-0.116 0-0.174v0.009-587.040c-0.001-0.097-0.001-0.211-0.001-0.325 0-31.884 25.621-57.784 57.398-58.234h588.202c0.048 0 0.104 0 0.161 0 32.165 0 58.24 26.075 58.24 58.24 0 0.113 0 0.225-0.001 0.338v-0.017 587.040c0 0.048 0 0.104 0 0.16 0 32.165-26.075 58.24-58.24 58.24-0.056 0-0.113 0-0.169 0h0.009zM661.6 489.76l-257.44-295.84c-1.623-1.877-4.008-3.058-6.669-3.058-1.807 0-3.486 0.544-4.883 1.478l0.032-0.020c-2.483 1.656-4.096 4.445-4.096 7.611 0 1.297 0.271 2.53 0.759 3.647l-0.023-0.059 92.48 208h-113.76c-3.15 0.017-5.913 1.656-7.499 4.124l-0.021 0.036c-0.685 1.249-1.088 2.738-1.088 4.32s0.403 3.071 1.112 4.368l-0.024-0.048 128 275.2c1.591 2.975 4.626 4.993 8.143 5.12h0.017l160-2.56c3.548-0.070 6.585-2.191 7.977-5.224l0.023-0.056c0.5-1.082 0.792-2.348 0.792-3.683 0-2.272-0.846-4.347-2.24-5.927l0.008 0.010-160-186.24 153.6 3.040c3.627-0.099 6.743-2.196 8.295-5.226l0.025-0.054c0.108-0.527 0.17-1.133 0.17-1.754 0-2.921-1.374-5.522-3.51-7.191l-0.020-0.015z" />
<glyph unicode="&#xe92e;" glyph-name="workstation" d="M914.4 710.080h-472.32v-64h455.68v-322.24h-455.68v-83.84h472.32c26.51 0 48 21.49 48 48v0 374.080c0 26.51-21.49 48-48 48v0zM743.36 197.92h-301.28v-71.2h301.28c18.284 1.785 32.457 17.077 32.457 35.68s-14.173 33.895-32.31 35.668l-0.147 0.012zM363.040 773.92h-264.48c-19.882 0-36-16.118-36-36v0-583.2c0-19.882 16.118-36 36-36v0h264.48c19.882 0 36 16.118 36 36v0 583.2c0 19.882-16.118 36-36 36v0zM158.4 567.2h-25.12c-4.418 0-8 3.582-8 8v0 25.12c0 4.418 3.582 8 8 8v0h25.12c4.418 0 8-3.582 8-8v0-24.32c0.026-0.24 0.040-0.518 0.040-0.8 0-4.418-3.582-8-8-8-0.014 0-0.028 0-0.042 0h0.002zM328.32 647.2h-192.96c-5.588 0.087-10.085 4.638-10.085 10.239 0 0.113 0.002 0.225 0.005 0.338v-0.016 24c-0.003 0.096-0.005 0.208-0.005 0.321 0 5.601 4.497 10.152 10.077 10.239h193.128c5.588-0.087 10.085-4.638 10.085-10.239 0-0.113-0.002-0.225-0.005-0.338v0.016-23.36c0.003-0.096 0.005-0.208 0.005-0.321 0-5.601-4.497-10.152-10.077-10.239h-0.008z" />
<glyph unicode="&#xe92f;" glyph-name="board-list" d="M375.040 517.76h389.28c9.759 0.179 17.601 8.132 17.601 17.917 0 0.057 0 0.114-0.001 0.172v-0.009 38.4c-0.088 9.717-7.896 17.582-17.583 17.76h-389.297c-9.759-0.179-17.601-8.132-17.601-17.917 0-0.057 0-0.114 0.001-0.172v0.009-37.92c-0.002-0.096-0.003-0.209-0.003-0.323 0-9.785 7.843-17.739 17.586-17.917h0.017zM375.040 386.72h389.28c9.759 0.179 17.601 8.132 17.601 17.917 0 0.057 0 0.114-0.001 0.172v-0.009 38.24c0 0.048 0.001 0.106 0.001 0.163 0 9.785-7.842 17.738-17.584 17.917h-389.297c-9.759-0.179-17.601-8.132-17.601-17.917 0-0.057 0-0.114 0.001-0.172v0.009-38.24c0-0.048-0.001-0.106-0.001-0.163 0-9.785 7.842-17.738 17.584-17.917h0.017zM375.040 256h389.28c9.759 0.179 17.601 8.132 17.601 17.917 0 0.057 0 0.114-0.001 0.172v-0.009 37.92c0 0.048 0.001 0.106 0.001 0.163 0 9.785-7.842 17.738-17.584 17.917h-389.297c-9.759-0.179-17.601-8.132-17.601-17.917 0-0.057 0-0.114 0.001-0.172v0.009-38.24c0.088-9.717 7.896-17.582 17.583-17.76h0.017zM258.080 517.76h39.68c9.759 0.179 17.601 8.132 17.601 17.917 0 0.057 0 0.114-0.001 0.172v-0.009 38.4c-0.085 9.662-7.805 17.494-17.415 17.759l-0.025 0.001h-39.84c-0.048 0-0.104 0.001-0.161 0.001-9.841 0-17.829-7.933-17.919-17.752v-38.249c-0.002-0.095-0.003-0.208-0.003-0.321 0-9.897 8.023-17.92 17.92-17.92 0.057 0 0.114 0 0.172 0.001h-0.009zM258.080 386.72h39.68c9.759 0.179 17.601 8.132 17.601 17.917 0 0.057 0 0.114-0.001 0.172v-0.009 38.24c0 0.048 0.001 0.106 0.001 0.163 0 9.785-7.842 17.738-17.584 17.917h-39.697c-0.048 0-0.104 0.001-0.161 0.001-9.897 0-17.92-8.023-17.92-17.92 0-0.057 0-0.113 0.001-0.169v0.009-38.24c0-0.048-0.001-0.104-0.001-0.161 0-9.897 8.023-17.92 17.92-17.92 0.057 0 0.113 0 0.169 0.001h-0.009zM258.080 256h39.68c9.759 0.179 17.601 8.132 17.601 17.917 0 0.057 0 0.114-0.001 0.172v-0.009 37.92c0 0.048 0.001 0.106 0.001 0.163 0 9.785-7.842 17.738-17.584 17.917h-39.697c-0.048 0-0.104 0.001-0.161 0.001-9.897 0-17.92-8.023-17.92-17.92 0-0.057 0-0.113 0.001-0.169v0.009-38.24c0.090-9.828 8.078-17.761 17.919-17.761 0.057 0 0.113 0 0.169 0.001h-0.009zM884.32 760h-281.76v40h-190.080v-40h-272c-0.238 0.003-0.519 0.005-0.8 0.005-37.379 0-67.68-30.301-67.68-67.68 0-0.002 0-0.003 0-0.005v0-520.64c0-37.379 30.301-67.68 67.68-67.68v0h744.64c37.379 0 67.68 30.301 67.68 67.68v0 520.64c0 37.379-30.301 67.68-67.68 67.68v0zM872 184h-720v496h720z" />
<glyph unicode="&#xe930;" glyph-name="image" d="M362.24 480c49.838 0 90.24 40.402 90.24 90.24s-40.402 90.24-90.24 90.24c-49.838 0-90.24-40.402-90.24-90.24v0c-0.002-0.239-0.004-0.521-0.004-0.804 0-49.396 40.044-89.44 89.44-89.44 0.283 0 0.565 0.001 0.847 0.004h-0.043zM858.88 800h-693.76c0 0 0 0 0 0-38.118 0-69.029-30.855-69.12-68.951v-565.929c0-38.174 30.946-69.12 69.12-69.12v0h693.76c38.174 0 69.12 30.946 69.12 69.12v0 565.92c-0.091 38.105-31.002 68.96-69.12 68.96 0 0 0 0 0 0v0zM165.12 736h693.76c2.828 0 5.12-2.292 5.12-5.12v0-462.56l-253.92 311.68-226.080-277.92-68.8 62.56-155.2-97.92v464c-0.002 0.048-0.003 0.104-0.003 0.16 0 2.828 2.292 5.12 5.12 5.12 0.001 0 0.002 0 0.003 0v0z" />
<glyph unicode="&#xe931;" glyph-name="info" d="M512 864c-229.75 0-416-186.25-416-416s186.25-416 416-416c229.75 0 416 186.25 416 416v0c0 229.75-186.25 416-416 416v0zM565.6 180h-107.2v388.64h107.36zM512 635.84c-37.025 0-67.040 30.015-67.040 67.040s30.015 67.040 67.040 67.040c37.025 0 67.040-30.015 67.040-67.040v0c0-37.025-30.015-67.040-67.040-67.040v0z" />
<glyph unicode="&#xe932;" glyph-name="laptop" d="M949.28 240h-336.8v-1.76c0-8.837-7.163-16-16-16v0h-170.72c-8.837 0-16 7.163-16 16v0 1.76h-336c-6.009 0-10.88-4.871-10.88-10.88v0-33.92c0-21.296 17.264-38.56 38.56-38.56h820c0.001 0 0.002 0 0.003 0 21.296 0 38.56 17.264 38.56 38.56 0 0.169-0.001 0.337-0.003 0.506v-0.026 33.92c-0.261 5.747-4.944 10.318-10.712 10.4h-0.008zM873.76 282.56h-722.88c-0.972 0-1.76 0.788-1.76 1.76v0 400.96c0 26.51 21.49 48 48 48v0h630.080c26.51 0 48-21.49 48-48v0-401.44c0-0.003 0-0.007 0-0.010 0-0.707-0.573-1.28-1.28-1.28-0.056 0-0.112 0.004-0.166 0.011l0.006-0.001zM213.12 346.56h598.080v322.72h-597.92z" />
<glyph unicode="&#xe933;" glyph-name="link" d="M375.68 155.36c-19.379-17.812-45.34-28.73-73.85-28.73-60.354 0-109.28 48.926-109.28 109.28 0 28.511 10.918 54.472 28.802 73.929l-0.071-0.079 183.52 183.52c19.625 19.74 46.797 31.957 76.824 31.957 40.286 0 75.435-21.992 94.097-54.626l0.28-0.531 69.28 69.28c-37.789 50.015-97.15 82.002-163.981 82.002-56.703 0-108.027-23.026-145.134-60.237l-182.725-183.365c-37.139-37.139-60.111-88.447-60.111-145.12 0-113.346 91.885-205.231 205.231-205.231 56.673 0 107.981 22.971 145.12 60.111v0l102.88 102.88-111.36 24.48zM645.6 736c20.093 22.344 49.097 36.333 81.368 36.333 60.354 0 109.28-48.926 109.28-109.28 0-32.232-13.954-61.204-36.15-81.206l-0.098-0.087-183.36-183.36c-19.658-19.952-46.973-32.312-77.175-32.312-40.493 0-75.797 22.22-94.384 55.131l-0.281 0.541-69.44-69.76c37.789-50.015 97.15-82.002 163.981-82.002 56.703 0 108.027 23.026 145.134 60.237l183.525 183.685c37.139 37.139 60.111 88.447 60.111 145.12 0 113.346-91.885 205.231-205.231 205.231-56.673 0-107.981-22.971-145.12-60.111v0l-102.88-102.88 111.2-24.48z" />
<glyph unicode="&#xe934;" glyph-name="list" d="M896 788.16v-84.16c0-6.56-8.64-11.84-16-11.84h-562.56c-0.246-0.017-0.534-0.027-0.824-0.027-6.709 0-12.197 5.227-12.614 11.83l-0.002 0.037v84.16c0.419 6.64 5.907 11.867 12.616 11.867 0.29 0 0.577-0.010 0.862-0.029l-0.039 0.002h562.56c7.36 0 16-5.28 16-11.84zM234.080 788.16v-84.16c-0.419-6.64-5.907-11.867-12.616-11.867-0.29 0-0.577 0.010-0.862 0.029l0.039-0.002h-78.88c-0.342-0.033-0.74-0.052-1.142-0.052-6.718 0-12.211 5.24-12.616 11.856l-0.002 0.036v84.16c0.407 6.651 5.9 11.892 12.618 11.892 0.402 0 0.8-0.019 1.192-0.056l-0.050 0.004h79.040c0.198 0.011 0.431 0.017 0.664 0.017 6.706 0 12.192-5.222 12.614-11.821l0.002-0.037zM234.080 589.28v-83.52c-0.419-6.64-5.907-11.867-12.616-11.867-0.29 0-0.577 0.010-0.862 0.029l0.039-0.002h-78.88c-0.342-0.033-0.74-0.052-1.142-0.052-6.718 0-12.211 5.24-12.616 11.856l-0.002 0.036v83.52c0.419 6.64 5.907 11.867 12.616 11.867 0.29 0 0.577-0.010 0.862-0.029l-0.039 0.002h79.36c0.198 0.011 0.431 0.017 0.664 0.017 6.706 0 12.192-5.222 12.614-11.821l0.002-0.037zM234.080 390.4v-83.52c-0.419-6.64-5.907-11.867-12.616-11.867-0.29 0-0.577 0.010-0.862 0.029l0.039-0.002h-78.88c-0.345-0.034-0.747-0.053-1.153-0.053-6.662 0-12.12 5.153-12.605 11.691l-0.002 0.042v83.52c0.419 6.64 5.907 11.867 12.616 11.867 0.29 0 0.577-0.010 0.862-0.029l-0.039 0.002h79.36c0.198 0.011 0.431 0.017 0.664 0.017 6.706 0 12.192-5.222 12.614-11.821l0.002-0.037zM234.080 191.52v-83.52c-0.419-6.64-5.907-11.867-12.616-11.867-0.29 0-0.577 0.010-0.862 0.029l0.039-0.002h-78.88c-0.345-0.034-0.747-0.053-1.153-0.053-6.662 0-12.12 5.153-12.605 11.691l-0.002 0.042v84.16c0.419 6.64 5.907 11.867 12.616 11.867 0.29 0 0.577-0.010 0.862-0.029l-0.039 0.002h79.36c0.198 0.011 0.431 0.017 0.664 0.017 6.706 0 12.192-5.222 12.614-11.821l0.002-0.037zM304 589.28v-83.52c0.419-6.64 5.907-11.867 12.616-11.867 0.29 0 0.577 0.010 0.862 0.029l-0.039-0.002h562.56c7.36 0 16 5.28 16 11.84v83.52c0 6.56-8.64 11.84-16 11.84h-562.56c-0.246 0.017-0.534 0.027-0.824 0.027-6.709 0-12.197-5.227-12.614-11.83l-0.002-0.037zM304 390.4v-83.52c0.419-6.64 5.907-11.867 12.616-11.867 0.29 0 0.577 0.010 0.862 0.029l-0.039-0.002h562.56c7.36 0 16 5.28 16 11.84v83.36c0 6.56-8.64 11.84-16 11.84h-562.56c-0.246 0.017-0.534 0.027-0.824 0.027-6.709 0-12.197-5.227-12.614-11.83l-0.002-0.037zM880 203.2h-563.52c-0.196 0.012-0.425 0.018-0.656 0.018-6.32 0-11.484-4.952-11.822-11.188l-0.001-0.030v-85.12c0.422-6.194 5.55-11.059 11.814-11.059 0.234 0 0.467 0.007 0.698 0.020l-0.032-0.001h563.52c6.88 0 16 4.96 16 11.040v85.12c0 6.24-9.12 11.2-16 11.2z" />
<glyph unicode="&#xe935;" glyph-name="location" d="M513.28 864c-167.84 0-304-144-304-321.92s126.72-315.52 304-542.080c173.92 224 304 364.32 304 542.080s-136 321.92-304 321.92zM513.28 353.6c-107.135 1.791-193.297 89.060-193.297 196.454 0 0.909 0.006 1.817 0.018 2.723l-0.001-0.137c-0.014 0.864-0.021 1.884-0.021 2.906 0 107.395 86.164 194.666 193.134 196.452l0.168 0.002c107.415-1.432 193.941-88.843 193.941-196.464 0-1.018-0.008-2.035-0.023-3.050l0.002 0.153c0.011-0.766 0.017-1.671 0.017-2.576 0-107.619-86.523-195.029-193.802-196.462l-0.135-0.001z" />
<glyph unicode="&#xe936;" glyph-name="logout" d="M368 256v144h-240v96h240v144l323.84-192zM512 832v-96h288v-576h-288v-96h384v768z" />
<glyph unicode="&#xe937;" glyph-name="mail" d="M922.56 784l-409.6-359.84-409.6 359.84s0 0 1.28 0h816s1.6 0.96 1.92 0zM922.56 633.6v-514.56h-819.2v515.2l409.6-360.64z" />
<glyph unicode="&#xe938;" glyph-name="nophoto" d="M634.72 582.080c0-67.335-54.585-121.92-121.92-121.92s-121.92 54.585-121.92 121.92c0 67.335 54.585 121.92 121.92 121.92s121.92-54.585 121.92-121.92zM512 411.52c-193.28 0-256-134.080-256-134.080v-85.44h512v85.28s-62.72 134.24-256 134.24zM819.52 832h-615.040c-42.239 0-76.48-34.241-76.48-76.48v0-615.040c0-42.239 34.241-76.48 76.48-76.48h615.040c42.239 0 76.48 34.241 76.48 76.48v0 615.040c0 42.239-34.241 76.48-76.48 76.48v0zM832 140.48c0-6.893-5.587-12.48-12.48-12.48v0h-615.040c-6.893 0-12.48 5.587-12.48 12.48v0 615.040c0 6.893 5.587 12.48 12.48 12.48v0h615.040c6.893 0 12.48-5.587 12.48-12.48v0z" />
<glyph unicode="&#xe939;" glyph-name="noplace" d="M535.2 468.16c9.22-1.664 19.831-2.615 30.665-2.615 100.030 0 181.12 81.090 181.12 181.12s-81.090 181.12-181.12 181.12c-100.030 0-181.12-81.090-181.12-181.12 0-10.834 0.951-21.446 2.775-31.757l-0.16 1.091c13.349-75.668 72.172-134.491 146.749-147.68l1.091-0.16zM937.12 212c-64 117.76-205.92 199.84-371.2 199.84s-307.52-82.080-371.2-199.84c-5.965-10.666-9.478-23.403-9.478-36.96 0-42.373 34.315-76.731 76.672-76.8h608.007c42.363 0.069 76.678 34.427 76.678 76.8 0 13.557-3.513 26.294-9.678 37.35l0.2-0.39zM132 443.68v19.2c-0.021 0.645-0.033 1.402-0.033 2.163 0 12.718 3.335 24.658 9.177 34.992l-0.184-0.355c8.292 12.126 19.018 21.982 31.532 29.038l0.468 0.242c9.896 5.838 18.416 12.626 25.877 20.435l0.043 0.045c4.867 5.456 7.842 12.692 7.842 20.623 0 0.118-0.001 0.236-0.002 0.355v-0.018c0.002 0.084 0.002 0.184 0.002 0.284 0 6.219-3.379 11.649-8.401 14.553l-0.081 0.043c-5.744 3.359-12.647 5.342-20.013 5.342-0.783 0-1.562-0.022-2.334-0.067l0.107 0.005c-29.191-1.674-56.044-10.318-79.348-24.278l0.788 0.438-31.040 60.64c33.143 19.883 73.080 31.742 115.767 32h0.073c2.167 0.134 4.7 0.211 7.25 0.211 26.419 0 50.917-8.219 71.079-22.24l-0.409 0.269c17.045-13.111 27.921-33.514 27.921-56.457 0-1.19-0.029-2.373-0.087-3.548l0.006 0.166c0.017-0.636 0.027-1.384 0.027-2.135 0-16.506-4.716-31.911-12.874-44.941l0.207 0.355c-10.634-15.186-24.038-27.671-39.576-36.956l-0.584-0.324c-11.095-6.529-20.692-13.835-29.333-22.13l0.053 0.050c-3.652-4.287-5.885-9.879-5.92-15.992v-11.368zM122.4 365.76c-0.071 0.903-0.111 1.955-0.111 3.017 0 11.309 4.565 21.551 11.953 28.985l-0.002-0.002c8.502 7.047 19.524 11.323 31.545 11.323 1.23 0 2.45-0.045 3.657-0.133l-0.162 0.009c0.984 0.072 2.131 0.113 3.288 0.113 11.827 0 22.656-4.278 31.022-11.37l-0.070 0.058c7.384-7.455 11.946-17.717 11.946-29.044 0-1.040-0.038-2.071-0.114-3.092l0.008 0.136c0.069-0.883 0.109-1.913 0.109-2.952 0-11.417-4.764-21.722-12.414-29.034l-0.015-0.014c-8.291-7.018-19.107-11.284-30.918-11.284-1 0-1.992 0.031-2.977 0.091l0.135-0.007c-0.888-0.056-1.926-0.088-2.971-0.088-12.004 0-23.027 4.196-31.684 11.202l0.095-0.074c-7.675 7.277-12.451 17.547-12.451 28.932 0 1.136 0.048 2.261 0.141 3.373l-0.010-0.145z" />
<glyph unicode="&#xe93a;" glyph-name="notification" d="M858.88 218.56l-64 86.24v232.64c0 129.44-105.76 236.32-243.2 253.92v36.32c-2.605 19.98-19.519 35.25-40 35.25s-37.395-15.271-39.978-35.047l-0.022-0.203v-36.32c-137.44-17.6-243.2-124.64-243.2-253.92v-233.44l-64-86.24c-3.275-5.125-5.22-11.376-5.22-18.080s1.945-12.955 5.302-18.217l-0.082 0.137c7.218-10.954 19.464-18.084 33.375-18.084 0.192 0 0.383 0.001 0.574 0.004h625.571c0.162-0.002 0.353-0.004 0.545-0.004 13.911 0 26.157 7.13 33.282 17.934l0.093 0.149c3.718 5.38 5.939 12.042 5.939 19.223 0 6.559-1.853 12.685-5.063 17.883l0.084-0.147zM512 32c43.2 0 80 35.84 96 86.72h-190.24c15.68-50.88 52.32-86.72 94.24-86.72z" />
<glyph unicode="&#xe93b;" glyph-name="numbered-list" d="M880 203.2h-563.52c-0.196 0.012-0.425 0.018-0.656 0.018-6.32 0-11.484-4.952-11.822-11.188l-0.001-0.030v-85.12c0.422-6.194 5.55-11.059 11.814-11.059 0.234 0 0.467 0.007 0.698 0.020l-0.032-0.001h563.52c6.88 0 16 4.96 16 11.040v85.12c0 6.24-9.12 11.2-16 11.2zM880 800h-562.56c-0.246 0.017-0.534 0.027-0.824 0.027-6.709 0-12.197-5.227-12.614-11.83l-0.002-0.037v-84.16c0.419-6.64 5.907-11.867 12.616-11.867 0.29 0 0.577 0.010 0.862 0.029l-0.039-0.002h562.56c7.36 0 16 5.28 16 11.84v84.16c0 6.56-8.64 11.84-16 11.84zM880 402.080h-562.56c-0.246 0.017-0.534 0.027-0.824 0.027-6.709 0-12.197-5.227-12.614-11.83l-0.002-0.037v-83.52c0.419-6.64 5.907-11.867 12.616-11.867 0.29 0 0.577 0.010 0.862 0.029l-0.039-0.002h562.56c7.36 0 16 5.28 16 11.84v83.52c0 6.56-8.64 11.84-16 11.84zM880 601.12h-562.56c-0.246 0.017-0.534 0.027-0.824 0.027-6.709 0-12.197-5.227-12.614-11.83l-0.002-0.037v-83.52c0.419-6.64 5.907-11.867 12.616-11.867 0.29 0 0.577 0.010 0.862 0.029l-0.039-0.002h562.56c7.36 0 16 5.28 16 11.84v83.52c0 6.4-8.64 11.84-16 11.84zM163.84 766.080c2.599 2.282 4.954 4.687 7.117 7.259l0.083 0.101q0-9.12 0-20.16v-60.48h32v114.24h-28.96l-39.2-32 16-19.68zM161.28 580.8c3.117 1.854 6.861 2.975 10.862 3.040h0.018c0.232 0.016 0.502 0.025 0.775 0.025 2.804 0 5.38-0.975 7.408-2.603l-0.023 0.018c1.78-1.643 2.891-3.987 2.891-6.592 0-0.158-0.004-0.314-0.012-0.47l0.001 0.022c0-0.002 0-0.005 0-0.007 0-2.486-0.53-4.849-1.483-6.981l0.043 0.109c-1.682-2.794-3.588-5.208-5.757-7.357l-0.003-0.003q-3.68-4.64-16-17.12l-26.88-28.64v-20.32h82.88v25.44h-43.2q19.2 17.92 24.8 24.64c3.359 3.438 6.414 7.204 9.102 11.236l0.178 0.284c4.315 6.484 6.885 14.451 6.885 23.018 0 0.233-0.002 0.465-0.006 0.696v-0.035c0 0.052 0.001 0.114 0.001 0.176 0 5.899-1.793 11.379-4.865 15.925l0.064-0.101c-3.316 4.916-7.879 8.76-13.242 11.122l-0.198 0.078c-5.25 2.147-11.343 3.393-17.727 3.393-0.63 0-1.258-0.012-1.883-0.036l0.090 0.003c-0.315 0.006-0.686 0.009-1.058 0.009-5.303 0-10.455-0.645-15.382-1.86l0.439 0.092c-4.977-1.245-9.346-3-13.394-5.261l0.274 0.141c-5.608-3.469-10.476-7.218-14.928-11.404l0.048 0.044 16.8-19.84c3.682 3.31 7.765 6.324 12.124 8.923l0.356 0.197zM163.36 320c-5.125 0.032-10.085 0.672-14.833 1.851l0.433-0.091c-6.057 1.33-11.4 3.259-16.393 5.78l0.393-0.18v-25.6c4.827-1.968 10.518-3.631 16.411-4.716l0.549-0.084c4.846-0.818 10.428-1.285 16.12-1.285 0.352 0 0.703 0.002 1.054 0.005h-0.054c1.591-0.153 3.441-0.241 5.31-0.241 11.288 0 21.833 3.185 30.783 8.706l-0.253-0.145c7.689 5.353 12.658 14.148 12.658 24.104 0 0.357-0.006 0.713-0.019 1.067l0.001-0.051q0 23.36-28.64 27.040v0c7.539 2.046 13.924 6.201 18.676 11.788l0.044 0.052c4.080 4.73 6.565 10.935 6.565 17.721 0 0.182-0.002 0.365-0.005 0.546v-0.027c0.006 0.193 0.009 0.419 0.009 0.646 0 7.789-3.975 14.649-10.007 18.662l-0.082 0.051c-7.154 4.467-15.842 7.116-25.149 7.116-0.947 0-1.887-0.027-2.82-0.081l0.129 0.006c-0.277 0.003-0.603 0.005-0.931 0.005-7.407 0-14.581-0.995-21.397-2.858l0.568 0.132c-7.076-2.089-13.247-5.149-18.747-9.087l0.187 0.127 12.8-20.64c6.378 4.383 14.208 7.097 22.655 7.358l0.065 0.002c0.21 0.009 0.456 0.014 0.704 0.014 3.152 0 6.109-0.836 8.661-2.299l-0.085 0.045c2.133-1.314 3.533-3.637 3.533-6.287 0-0.152-0.005-0.304-0.014-0.454l0.001 0.021q0-12-23.52-12h-7.2v-23.2h7.040c0.381 0.008 0.831 0.013 1.281 0.013 4.531 0 8.951-0.471 13.216-1.366l-0.417 0.073c3.048-0.565 5.713-1.924 7.854-3.853l-0.014 0.013c1.505-1.751 2.421-4.045 2.421-6.553 0-0.228-0.008-0.453-0.022-0.677l0.002 0.030c0.013-0.191 0.021-0.413 0.021-0.638 0-3.504-1.846-6.577-4.619-8.298l-0.042-0.024c-3.433-1.528-7.439-2.418-11.652-2.418-1.137 0-2.259 0.065-3.363 0.191l0.135-0.013zM207.040 210.24h-28.48l-48-69.44v-22.72h45.44v-22.080h30.4v22.080h12.64v23.040h-12.64zM176.8 164.64q0-6.4 0-10.080v-13.28h-19.040l12.64 18.72c2.099 3.179 4.129 6.854 5.871 10.687l0.209 0.513h0.8c-0.259-1.922-0.432-4.194-0.479-6.496l-0.001-0.064z" />
<glyph unicode="&#xe93c;" glyph-name="onboard" d="M519.2 468.16c9.22-1.664 19.831-2.615 30.665-2.615 100.030 0 181.12 81.090 181.12 181.12s-81.090 181.12-181.12 181.12c-100.030 0-181.12-81.090-181.12-181.12 0-10.834 0.951-21.446 2.775-31.757l-0.16 1.091c13.349-75.668 72.172-134.491 146.749-147.68l1.091-0.16zM921.12 212c-64 117.76-205.92 199.84-371.2 199.84s-307.52-82.080-371.2-199.84c-5.965-10.666-9.478-23.403-9.478-36.96 0-42.373 34.315-76.731 76.672-76.8h608.007c42.363 0.069 76.678 34.427 76.678 76.8 0 13.557-3.513 26.294-9.678 37.35l0.2-0.39zM235.36 380.8v92.48h92.64v80h-92.64v92.48h-80v-92.48h-92.48v-80h92.48v-92.48h80z" />
<glyph unicode="&#xe93d;" glyph-name="phone" d="M609.12 352c41.49 42.28 67.098 100.27 67.098 164.241 0 13.419-1.127 26.576-3.291 39.379l0.193-1.38-4.32 3.84-48 48c-15.55 15.621-25.164 37.164-25.164 60.951 0 11.954 2.428 23.341 6.817 33.695l-0.213-0.566c4.546 10.771 10.814 19.963 18.557 27.677l0.003 0.003 110.4 108.8c15.614 15.508 37.128 25.093 60.88 25.093s45.266-9.585 60.885-25.098l47.995-47.995c15.447-15.507 24.997-36.898 24.997-60.52 0-0.886-0.013-1.769-0.040-2.649l0.003 0.129c-0.184-8.338-1.516-16.295-3.844-23.814l0.164 0.614c-25.28-139.040-108-293.12-240-424.8s-285.6-213.6-424.8-239.040q-11.68-2.080-23.2-3.68c-0.751-0.024-1.634-0.037-2.52-0.037-23.622 0-45.012 9.55-60.522 25l-47.997 47.997c-15.508 15.614-25.093 37.128-25.093 60.88s9.585 45.266 25.098 60.885l109.915 109.915c7.717 7.746 16.909 14.014 27.122 18.349l0.558 0.211c9.788 4.176 21.175 6.604 33.129 6.604 23.788 0 45.33-9.613 60.955-25.167l47.997-47.997 3.84-4.32c11.255-1.914 24.22-3.007 37.44-3.007 64.326 0 122.605 25.894 164.981 67.827l-0.020-0.020z" />
<glyph unicode="&#xe93e;" glyph-name="play-video" d="M838.72 768h-652.64c-0.143 0.001-0.311 0.001-0.48 0.001-49.485 0-89.6-40.115-89.6-89.6 0 0 0-0.001 0-0.001v0-460.8c0-49.485 40.115-89.6 89.6-89.6v0h653.12c49.347 0.182 89.28 40.227 89.28 89.599 0 0 0 0 0 0v0 460.8c0 0 0 0 0 0.001 0 49.372-39.933 89.417-89.262 89.599h-0.018zM400 291.36v321.28l265.28-160z" />
<glyph unicode="&#xe93f;" glyph-name="profile" d="M656.48 562.24c0-79.794-64.686-144.48-144.48-144.48s-144.48 64.686-144.48 144.48c0 79.794 64.686 144.48 144.48 144.48s144.48-64.686 144.48-144.48zM512 896c-247.424 0-448-200.576-448-448s200.576-448 448-448c247.424 0 448 200.576 448 448v0c0 247.424-200.576 448-448 448v0zM803.36 199.040c-29.92 110.4-148.8 192.96-291.36 192.96s-261.28-82.72-291.36-192.96c-57.574 66.763-92.64 154.352-92.64 250.131 0 212.077 171.923 384 384 384s384-171.923 384-384c0-95.779-35.066-183.367-93.059-250.628l0.419 0.498z" />
<glyph unicode="&#xe940;" glyph-name="progress" d="M896 608l-94.4-39.36c13.98-35.114 22.088-75.804 22.088-118.388 0-0.792-0.003-1.583-0.008-2.373l0.001 0.122c0.069-2.412 0.108-5.252 0.108-8.1 0-167.895-136.105-304-304-304-2.738 0-5.468 0.036-8.189 0.108l0.401-0.008c-2.511-0.074-5.465-0.117-8.428-0.117-167.895 0-304 136.105-304 304 0 2.854 0.039 5.699 0.117 8.535l-0.009-0.418c0 178.4 120.32 312 312.32 312v104c-229.75 0-416-186.25-416-416s186.25-416 416-416c229.75 0 416 186.25 416 416v0c0 0.143 0 0.311 0 0.48 0 57.579-11.766 112.411-33.025 162.221l1.025-2.701z" />
<glyph unicode="&#xe941;" glyph-name="project" d="M876.96 640h-361.76l-120.64 128h-241.12c-40.16 0-57.44-11.68-57.44-50.080v-523.2c0-39.52 17.28-66.72 57.44-66.72h723.52c39.040 0 51.040 28 51.040 66.72v401.12c0 38.4-10.88 44.16-51.040 44.16z" />
<glyph unicode="&#xe942;" glyph-name="projector" d="M921.28 650.4h-114.080c-38.052 42.85-93.289 69.716-154.8 69.716s-116.748-26.866-154.615-69.504l-0.185-0.212h-394.72c0 0 0 0 0 0-21.473 0-38.88-17.407-38.88-38.88 0-0.056 0-0.112 0-0.169v0.009-346.080c0-0.048 0-0.104 0-0.16 0-21.417 17.316-38.789 38.712-38.88h26.409v-30.24c0-0.048-0.001-0.104-0.001-0.16 0-10.957 8.883-19.84 19.84-19.84 0 0 0 0 0.001 0h102.24c0 0 0 0 0.001 0 10.957 0 19.84 8.883 19.84 19.84 0 0.056 0 0.112-0.001 0.169v-0.009 30.24h484v-30.24c0-0.048-0.001-0.104-0.001-0.16 0-10.957 8.883-19.84 19.84-19.84 0 0 0 0 0.001 0h102.24c0 0 0 0 0.001 0 10.957 0 19.84 8.883 19.84 19.84 0 0.056 0 0.112-0.001 0.169v-0.009 30.24h24.32c21.404 0.091 38.72 17.463 38.72 38.88 0 0.056 0 0.113 0 0.169v-0.009 346.080c0 0.048 0 0.104 0 0.16 0 21.417-17.316 38.789-38.712 38.88h-0.009zM227.040 549.76c0-0.005 0-0.010 0-0.016 0-10.676-8.432-19.382-19-19.823l-0.040-0.001h-59.040c0 0 0 0-0.001 0-10.957 0-19.84 8.883-19.84 19.84 0 0.056 0 0.112 0.001 0.169v-0.009 10.080c0 0.048-0.001 0.104-0.001 0.16 0 10.957 8.883 19.84 19.84 19.84 0 0 0 0 0.001 0h59.040c10.608-0.441 19.041-9.148 19.041-19.824 0-0.062 0-0.124-0.001-0.186v0.009zM652.32 359.36c-0.333-0.003-0.726-0.004-1.12-0.004-82.887 0-150.080 67.193-150.080 150.080s67.193 150.080 150.080 150.080c82.885 0 150.078-67.191 150.080-150.076v0c0-0.095 0-0.208 0-0.321 0-82.397-66.614-149.235-148.926-149.599h-0.035zM720 547.84c-0.181-18.154-14.939-32.8-33.118-32.8-18.292 0-33.12 14.828-33.12 33.12s14.827 33.119 33.118 33.12h1.76c-10.559 5.751-23.108 9.174-36.447 9.28h-0.033c-0.131 0.001-0.287 0.001-0.443 0.001-44.625 0-80.8-36.175-80.8-80.8s36.175-80.8 80.8-80.8c44.625 0 80.8 36.175 80.8 80.8 0 16.025-4.665 30.96-12.711 43.522l0.194-0.323c0.063-0.766 0.098-1.659 0.098-2.56s-0.036-1.794-0.106-2.677l0.007 0.117z" />
<glyph unicode="&#xe943;" glyph-name="redo" d="M816 424.48c-6.392 91.751-44.849 173.464-104.113 234.998l0.113-0.118c-64.52 67.009-154.999 108.63-255.2 108.63s-190.68-41.621-255.093-108.518l-0.107-0.112c-65.613-68.398-106.013-161.425-106.013-263.887 0-55.687 11.933-108.587 33.382-156.283l-0.969 2.41c18.795-41.675 43.308-77.353 73.043-107.925l-0.083 0.085 78.56 80.96c-20.543 21.076-37.527 45.743-49.904 72.95l-0.656 1.61c-14.246 31.412-22.548 68.115-22.548 106.757 0 70.781 27.855 135.056 73.202 182.461l-0.093-0.098c44.643 46.412 107.275 75.243 176.64 75.243s131.996-28.831 176.564-75.164l0.076-0.080c38.988-40.459 64.978-93.684 71.107-152.807l0.093-1.113h-108.64l166.4-248.48 166.24 248.64z" />
<glyph unicode="&#xe944;" glyph-name="pointer-map" d="M689.44 32h-71.040v64h71.2zM547.2 32h-71.2v64h71.2zM832 32h-71.36v64h71.36zM404.96 32h-71.2v64h71.2zM262.72 32h-70.72v64h71.2zM509.92 864c-157.92 0-285.92-133.28-285.92-297.76s118.24-249.12 285.44-458.72c163.36 208 285.44 294.24 285.44 458.72s-127.2 297.76-284.96 297.76zM509.92 395.36c-0.761-0.012-1.66-0.018-2.56-0.018-99.765 0-180.64 80.875-180.64 180.64s80.875 180.64 180.64 180.64c99.758 0 180.63-80.865 180.64-180.621v-0.001c0.002-0.287 0.003-0.627 0.003-0.967 0-98.673-79.537-178.769-177.997-179.672l-0.086-0.001z" />
<glyph unicode="&#xe945;" glyph-name="search" d="M924.8 133.92l-177.92 177.92c39.273 57.405 62.715 128.342 62.715 204.754 0 201.915-163.685 365.6-365.6 365.6s-365.6-163.685-365.6-365.6c0-201.915 163.685-365.6 365.6-365.6 80.276 0 154.509 25.873 214.815 69.734l-1.051-0.728 176-176c5.089-5.053 12.1-8.176 19.84-8.176s14.751 3.123 19.842 8.178l50.718 50.718c5.107 5.098 8.266 12.145 8.266 19.93 0 7.462-2.902 14.246-7.639 19.285l0.014-0.015zM444.8 247.2c-148.277 0-268.48 120.203-268.48 268.48s120.203 268.48 268.48 268.48c148.277 0 268.48-120.203 268.48-268.48v0c-0.091-148.273-120.22-268.458-268.463-268.64h-0.017z" />
<glyph unicode="&#xe946;" glyph-name="seat" d="M624 400h272v-336h-768v768h336v-272c0-112 48-160 160-160z" />
<glyph unicode="&#xe947;" glyph-name="security" d="M576.8 587.040v-67.52h-135.040v67.52c0 19.2 25.76 67.52 67.52 67.52s67.52-47.84 67.52-67.52zM509.28 465.44c-26.56 0-40.48-28.96-40.48-54.080v-81.12h81.12v81.28c-0.16 24.8-13.12 53.92-40.64 53.92zM873.92 749.12c0-70.080 0-40.48 0-67.52 0-505.6-236.32-598.88-363.68-649.6-125.12 46.4-366.24 144-366.24 649.6 0 26.080 0 32 0 67.84 0 0 92 107.68 365.6 107.68s364.32-108 364.32-108zM684.96 519.52h-67.52v67.52c0.043 1.117 0.067 2.429 0.067 3.747 0 57.614-46.706 104.32-104.32 104.32-1.318 0-2.63-0.024-3.936-0.073l0.189 0.006c-0.87 0.026-1.894 0.041-2.921 0.041-58.056 0-105.12-47.064-105.12-105.12 0-1.027 0.015-2.050 0.044-3.070l-0.003 0.15v-67.52h-67.68v-202.56c2.137-28.968 25.112-51.943 53.888-54.069l0.192-0.011h243.2c28.937 2.205 51.875 25.143 54.068 53.882l0.012 0.198z" />
<glyph unicode="&#xe948;" glyph-name="statistics" d="M128 384h144v-320h-144zM336 64h144v768h-144zM544 64h144v447.2h-144zM752 640v-576h144v576z" />
<glyph unicode="&#xe949;" glyph-name="team" d="M485.6 464c7.714-1.388 16.594-2.181 25.659-2.181 83.947 0 152 68.053 152 152s-68.053 152-152 152c-83.947 0-152-68.053-152-152 0-9.065 0.794-17.944 2.315-26.573l-0.134 0.914c11.225-63.541 60.619-112.935 123.243-124.025l0.917-0.135zM777.12 449.28c4.477-0.807 9.63-1.269 14.891-1.269 48.601 0 88 39.399 88 88s-39.399 88-88 88c-48.601 0-88-39.399-88-88 0-5.261 0.462-10.414 1.347-15.421l-0.078 0.53c6.529-36.748 35.092-65.311 71.307-71.761l0.533-0.079zM217.12 449.28c4.477-0.807 9.63-1.269 14.891-1.269 48.601 0 88 39.399 88 88s-39.399 88-88 88c-48.601 0-88-39.399-88-88 0-5.261 0.462-10.414 1.347-15.421l-0.078 0.53c6.529-36.748 35.092-65.311 71.307-71.761l0.533-0.079zM824.16 223.040c-53.76 99.2-173.44 168.32-312.16 168.32s-259.2-69.12-312.8-168.32c-5.055-8.948-8.034-19.649-8.034-31.045 0-35.346 28.654-64 64-64 0.293 0 0.586 0.002 0.878 0.006h511.956c0.057 0 0.124 0 0.191 0 35.346 0 64 28.654 64 64 0 11.394-2.978 22.093-8.197 31.361l0.166-0.321zM955.36 266.4c-32 80-104.48 134.88-188.32 134.88-20.186-0.038-39.607-3.254-57.809-9.174l1.329 0.374c66.238-32.62 119.533-82.932 154.915-144.804l0.925-1.756c8.578-15.544 13.625-34.074 13.625-53.782 0-0.836-0.009-1.67-0.027-2.502l0.002 0.124h41.12c29.76 0 48.32 42.080 34.24 76.64zM68.96 266.4c32 80 104.48 134.88 188.32 134.88 20.186-0.038 39.607-3.254 57.809-9.174l-1.329 0.374c-66.238-32.62-119.533-82.932-154.915-144.804l-0.925-1.756c-8.77-15.684-13.935-34.414-13.935-54.35 0-0.636 0.005-1.272 0.016-1.905l-0.001 0.095h-40.96c-29.6 0-48.16 42.080-34.080 76.64z" />
<glyph unicode="&#xe94a;" glyph-name="technology" d="M732 807.52c-56.756 55.062-134.269 89.006-219.71 89.006-6.406 0-12.767-0.191-19.079-0.567l0.869 0.041c-169.451-11.405-302.583-151.651-302.583-322.992 0-94.413 40.423-179.385 104.905-238.553l0.238-0.215c35.471-32.866 57.6-79.698 57.6-131.699 0-0.050 0-0.099 0-0.149v0.008-44.96c-0.001-0.191-0.001-0.416-0.001-0.642 0-86.317 69.747-156.345 155.958-156.798h3.723c86.185 0.544 155.841 70.536 155.841 156.797 0 0.226 0 0.452-0.001 0.678v-0.035 44.96c-0.002 0.282-0.003 0.616-0.003 0.951 0 51.477 21.881 97.844 56.85 130.306l0.112 0.103c64.841 59.579 105.332 144.778 105.332 239.435 0 92.112-38.344 175.269-99.941 234.379l-0.111 0.106zM674.4 391.52c-33.246-30.699-58.187-69.919-71.38-114.202l-0.46-1.798h-58.56l74.4 226.72c0.984 2.941 1.552 6.326 1.552 9.845 0 6.925-2.2 13.336-5.938 18.573l0.066-0.097c-5.815 8.096-15.165 13.335-25.743 13.44h-152.657c-10.363-0.187-19.5-5.272-25.218-13.032l-0.062-0.088c-3.672-5.139-5.872-11.55-5.872-18.475 0-3.518 0.568-6.904 1.617-10.071l-0.065 0.226 73.92-226.4h-59.2c-13.814 46.239-38.847 85.599-71.995 116.329l-0.165 0.151c-48.64 44.855-79.002 108.9-79.002 180.036 0 129.525 100.659 235.539 228.018 244.084l0.744 0.040h13.76c0.325 0.002 0.71 0.003 1.096 0.003 64.133 0 122.355-25.307 165.225-66.479l-0.081 0.077c46.622-44.772 75.588-107.625 75.588-177.244 0-71.547-30.594-135.949-79.413-180.836l-0.176-0.16zM512 380.64l-32.96 100.64h66.080z" />
<glyph unicode="&#xe94b;" glyph-name="textstyle-bold" d="M252.8 832h238.88q163.36 0 237.12-46.4t73.76-147.84c0.118-2.479 0.185-5.385 0.185-8.306 0-39.074-12.033-75.337-32.596-105.287l0.41 0.633c-19.96-27.996-50.246-47.518-85.189-53.025l-0.731-0.095v-5.28q72.96-16 105.28-60.96c20.226-30.564 32.268-68.080 32.268-108.409 0-3.627-0.097-7.231-0.29-10.81l0.021 0.499c0.125-2.614 0.196-5.677 0.196-8.757 0-62.786-29.595-118.661-75.596-154.434l-0.44-0.33q-75.84-59.2-206.080-59.2h-288zM416 528h94.56q66.24 0 96 20.48c18.273 14.087 29.929 35.984 29.929 60.602 0 2.492-0.119 4.956-0.353 7.387l0.024-0.309c0.182 1.865 0.286 4.032 0.286 6.223 0 24.309-12.786 45.632-31.999 57.61l-0.287 0.167q-32 19.2-102.080 19.2h-86.080zM416 398.72v-200h105.6q67.2 0 99.2 25.76c19.839 17.477 32.29 42.938 32.29 71.307 0 2.609-0.105 5.193-0.312 7.749l0.022-0.336q0 96-136.48 96z" />
<glyph unicode="&#xe94c;" glyph-name="textstyle-crossed" d="M128 488.64h768v-80h-768zM727.040 371.52c16.268-26.164 25.912-57.917 25.912-91.922 0-3.686-0.113-7.346-0.337-10.976l0.025 0.498c-0.293-62.485-30.167-117.932-76.327-153.094l-0.473-0.346c-45.28-32-109.92-51.2-201.92-51.2-80 0-137.92 25.6-201.92 51.2v102.4c32-14.72 125.12-51.2 201.92-51.2s152.16 25.6 152.16 102.4-64.96 96-77.44 102.4c102.24-0.16 176.8 5.76 178.4-0.16zM317.76 528c-23.134 29.374-37.56 66.563-38.872 107.067l-0.008 0.293c3.812 58.868 31.255 110.662 72.845 146.489l0.275 0.231c44.008 30.76 98.637 49.151 157.561 49.151 3.615 0 7.214-0.069 10.795-0.206l-0.516 0.016c78.408-0.55 152.645-17.82 219.512-48.414l-3.352 1.374-48-96c-48.775 26.877-106.302 44.204-167.501 47.944l-1.139 0.056c-39.36 1.28-119.36-28-119.36-100.32 0-53.28 58.24-91.68 104.16-107.68z" />
<glyph unicode="&#xe94d;" glyph-name="textstyle-family" d="M612.48 96l-74.080 208h-247.2l-74.080-208h-123.68l272 704h98.56l272-704zM513.6 400s-96 283.040-98.88 295.040c-9.28-37.12-98.88-295.040-98.88-295.040zM801.6 395.68l-130.4 148.32h259.84z" />
<glyph unicode="&#xe94e;" glyph-name="textstyle-italic" d="M816 752v80h-480v-80h178.72l-131.2-608h-159.52v-80h464v80h-147.84l131.36 608h144.48z" />
<glyph unicode="&#xe94f;" glyph-name="textstyle-size" d="M96 800h496v-96h-192v-576h-112v576h-192zM832 640h91.2l-130.080 156-130.080-156h88.96v-352h-83.84l130.080-156 129.76 156h-96z" />
<glyph unicode="&#xe950;" glyph-name="textstyle-underlined" d="M192 128h624v-64h-624zM780.32 832v-412.64c0.031-1.449 0.048-3.157 0.048-4.87 0-45.318-12.194-87.787-33.481-124.306l0.633 1.176c-22.501-37.143-54.9-66.3-93.56-84.25l-1.32-0.55c-41.364-19.334-89.813-30.616-140.897-30.616-2.16 0-4.315 0.020-6.465 0.060l0.322-0.005q-128 0-198.56 65.44t-70.72 179.2v411.36h140v-389.44q0-76.64 30.88-112t101.92-35.84q68.8 0 100 36t30.88 112.8v388.48z" />
<glyph unicode="&#xe951;" glyph-name="trash" d="M838.72 830.88h-251.52c0 1.28 0 8.64 0 8.64 0.036 0.484 0.057 1.047 0.057 1.616 0 12.636-10.244 22.88-22.88 22.88-0.301 0-0.602-0.006-0.9-0.017l0.043 0.001h-106.24c-0.391 0.024-0.849 0.037-1.309 0.037-12.636 0-22.88-10.244-22.88-22.88 0-0.407 0.011-0.812 0.032-1.214l-0.002 0.056s0-7.36 0-8.64h-246.080c-15.031-0.441-27.048-12.732-27.048-27.829 0-0.229 0.003-0.457 0.008-0.685l-0.001 0.034v-41.76c0.344-13.96 11.742-25.145 25.753-25.145 0.396 0 0.791 0.009 1.183 0.027l-0.056-0.002h651.68c0.527-0.038 1.142-0.060 1.761-0.060 14.224 0 25.772 11.457 25.919 25.646v41.294c0 0.048 0 0.105 0 0.162 0 15.263-12.283 27.658-27.503 27.838h-0.017zM224 142.4c-0.011-0.573-0.017-1.248-0.017-1.926 0-60.408 48.658-109.451 108.918-110.074h358.459c60.319 0.624 108.977 49.667 108.977 110.074 0 0.677-0.006 1.353-0.018 2.027l0.001-0.101v528h-576.32zM635.68 555.040c0 17.673 14.327 32 32 32s32-14.327 32-32v0-390.88c0-17.673-14.327-32-32-32s-32 14.327-32 32v0zM479.36 555.040c0 17.673 14.327 32 32 32s32-14.327 32-32v-390.88c0-17.673-14.327-32-32-32s-32 14.327-32 32v0zM330.72 555.040c0 17.673 14.327 32 32 32s32-14.327 32-32v0-390.88c0-17.673-14.327-32-32-32s-32 14.327-32 32v0z" />
<glyph unicode="&#xe952;" glyph-name="triangle-down" d="M512 208l-384 422.4h768z" />
<glyph unicode="&#xe953;" glyph-name="tv" d="M912 768h-800c-26.51 0-48-21.49-48-48v0-480c0-26.51 21.49-48 48-48v0h80v-41.44c0-0.001 0-0.001 0-0.002 0-12.347 9.919-22.377 22.223-22.558h594.897c0.095-0.001 0.207-0.002 0.32-0.002 12.46 0 22.56 10.1 22.56 22.56 0 0.001 0 0.002 0 0.002v0 41.44h80c26.51 0 48 21.49 48 48v0 480c0 26.51-21.49 48-48 48v0zM325.28 191.040h-19.84c-13.255 0-24 10.745-24 24s10.745 24 24 24v0h19.84c13.255 0 24-10.745 24-24s-10.745-24-24-24v0zM896 292.32h-768v411.68h768z" />
<glyph unicode="&#xe954;" glyph-name="undo" d="M208 424.48c6.392 91.751 44.849 173.464 104.113 234.998l-0.113-0.118c64.52 67.009 154.999 108.63 255.2 108.63s190.68-41.621 255.093-108.518l0.107-0.112c65.613-68.398 106.013-161.425 106.013-263.887 0-55.687-11.933-108.587-33.382-156.283l0.969 2.41c-18.795-41.675-43.308-77.353-73.043-107.925l0.083 0.085-78.56 80.96c20.543 21.076 37.527 45.743 49.904 72.95l0.656 1.61c14.246 31.412 22.548 68.115 22.548 106.757 0 70.781-27.855 135.056-73.202 182.461l0.093-0.098c-44.643 46.412-107.275 75.243-176.64 75.243s-131.996-28.831-176.564-75.164l-0.076-0.080c-38.988-40.459-64.978-93.684-71.107-152.807l-0.093-1.113h109.44l-167.2-248.48-166.24 248.64z" />
<glyph unicode="&#xe955;" glyph-name="unvisible" d="M804 658.080l100.32 100.32-45.28 45.28-669.76-669.76 45.28-45.28 84.48 84.48c56.288-28.362 122.667-45.013 192.924-45.12h0.036c195.2 0 364.48 130.080 448 320-36.69 83.44-89.585 153.668-155.18 209.4l-0.82 0.68zM512 192c-0.023 0-0.050 0-0.078 0-50.089 0-96.794 14.485-136.157 39.494l1.034-0.614 91.36 91.36c13.191-4.716 28.409-7.442 44.263-7.442 1.652 0 3.297 0.030 4.934 0.088l-0.237-0.007c55.596 3.050 102.196 38.518 121.436 87.7l0.324 0.94c5.781 14.062 9.136 30.385 9.136 47.492 0 11.964-1.641 23.545-4.711 34.529l0.215-0.901-4.32 8.64 89.92 89.92c24.233-38.399 38.613-85.12 38.613-135.2 0-141.291-114.463-255.848-255.719-256h-0.015zM376.48 450.56c0.044-9.599 1.090-18.929 3.041-27.923l-0.161 0.883 112 112c46.4 46.4 33.76 32.96 51.52 50.88-4 0-25.92 0-29.92 0-0.19 0.001-0.415 0.002-0.64 0.002-75.022 0-135.84-60.818-135.84-135.84 0-0.001 0-0.001 0-0.002v0zM285.44 329.6c-18.008 34.135-28.578 74.602-28.578 117.538 0 141.385 114.615 256 256 256 42.936 0 83.402-10.57 118.94-29.25l-1.403 0.672 56.32 56.32c-51.41 23.253-111.443 36.896-174.638 37.12h-0.082c-195.2 0-364.48-130.080-448-320 34.275-77.831 82.188-143.787 141.301-197.668l0.459-0.412z" />
<glyph unicode="&#xe956;" glyph-name="user" d="M478.4 468.96c10.104-1.827 21.734-2.872 33.608-2.872 109.397 0 198.080 88.683 198.080 198.080s-88.683 198.080-198.080 198.080c-109.397 0-198.080-88.683-198.080-198.080 0-11.874 1.045-23.504 3.047-34.803l-0.175 1.195c14.621-82.696 78.904-146.979 160.405-161.425l1.195-0.175zM917.92 188.8c-69.92 128.8-225.12 218.56-405.92 218.56s-336-89.76-406.080-218.56c-6.653-11.758-10.574-25.821-10.574-40.8 0-46.392 37.608-84 84-84 0.061 0 0.123 0 0.184 0h664.95c0.004 0 0.009 0 0.014 0 46.392 0 84 37.608 84 84 0 14.979-3.921 29.042-10.792 41.22l0.218-0.42z" />
<glyph unicode="&#xe957;" glyph-name="videocall" d="M912 464c0.001 0.257 0.001 0.562 0.001 0.866 0 220.914-179.086 400-400 400s-400-179.086-400-400c0-144.005 76.098-270.237 190.275-340.676l1.724-0.99h-64v-93.12h548v93.12h-68c115.66 71.279 191.679 197.127 192 340.753v0.047zM512 157.6c-169.328 0.091-306.56 137.379-306.56 306.72 0 169.397 137.323 306.72 306.72 306.72s306.72-137.323 306.72-306.72c0-0.112 0-0.225 0-0.337v0.017c-0.364-169.242-137.6-306.309-306.871-306.4h-0.009zM512 659.040c-107.472-0.091-194.56-87.235-194.56-194.72 0-107.541 87.179-194.72 194.72-194.72 107.428 0 194.538 86.997 194.72 194.383v0.017c0 0.048 0 0.104 0 0.16 0 107.629-87.251 194.88-194.88 194.88 0 0 0 0 0 0v0zM512 325.44c-76.632 0.091-138.72 62.235-138.72 138.88 0 76.701 62.179 138.88 138.88 138.88s138.88-62.179 138.88-138.88c0-0.112 0-0.225 0-0.337v0.017c-0.273-76.583-62.418-138.56-139.039-138.56 0 0-0.001 0-0.001 0v0zM576 499.68c-0.012-17.046-13.833-30.86-30.88-30.86-17.055 0-30.88 13.825-30.88 30.88 0 16.661 13.194 30.24 29.704 30.858l0.056 0.002h1.6c-9.752 5.176-21.309 8.245-33.576 8.32h-0.024c-0.108 0.001-0.235 0.001-0.363 0.001-41.443 0-75.040-33.597-75.040-75.040s33.597-75.040 75.040-75.040c41.443 0 75.040 33.597 75.040 75.040 0 15.099-4.46 29.157-12.134 40.928l0.177-0.289c0.497-1.34 0.94-2.951 1.25-4.61l0.030-0.19z" />
<glyph unicode="&#xe958;" glyph-name="view" d="M512 768c-195.2 0-364.48-130.080-448-320 83.52-189.92 252.8-320 448-320s364.48 130.080 448 320c-83.52 189.92-252.8 320-448 320zM512 192c-141.385 0-256 114.615-256 256s114.615 256 256 256c141.385 0 256-114.615 256-256v0c0-141.385-114.615-256-256-256v0zM580.16 435.2c-52.413 0.789-94.599 43.463-94.599 95.99 0 32.359 16.010 60.978 40.541 78.369l0.298 0.201c-4.64 0-9.44 0-14.24 0-0.034 0-0.075 0-0.116 0-88.366 0-160-71.634-160-160s71.634-160 160-160c88.366 0 160 71.634 160 160 0 14.331-1.884 28.221-5.418 41.438l0.254-1.118c-15.765-32.702-48.652-54.869-86.718-54.88h-0.002z" />
<glyph unicode="&#xe959;" glyph-name="whiteboard" d="M883.36 770.24h-267.36v10.88c0 10.427-8.453 18.88-18.88 18.88h-170.24c-10.427 0-18.88-8.453-18.88-18.88v0-10.88h-267.36c0 0 0 0 0 0-24.598 0-44.549-19.895-44.64-44.471v-505.129c0-24.654 19.986-44.64 44.64-44.64v0h67.36l-8.96-9.6c-6.201-6.619-10.010-15.545-10.010-25.36 0-20.506 16.624-37.13 37.13-37.13 10.691 0 20.326 4.518 27.101 11.749l0.019 0.020 52.96 56.48c0.982 1.139 1.93 2.391 2.795 3.703l0.085 0.137h403.52c0.95-1.449 1.898-2.701 2.92-3.888l-0.040 0.048 52.48-56.48c6.794-7.252 16.429-11.77 27.12-11.77 20.506 0 37.13 16.624 37.13 37.13 0 9.815-3.809 18.741-10.029 25.38l0.019-0.020-8.96 9.6h69.76c0.095-0.001 0.207-0.001 0.32-0.001 24.654 0 44.64 19.986 44.64 44.64 0 0 0 0.001 0 0.001v0 505.12c-0.091 24.585-20.042 44.48-44.64 44.48 0 0 0 0 0 0v0zM868.64 280h-713.28v430.88h713.28zM272 354.080c0.018 0 0.039 0 0.060 0 8.238 0 15.691 3.366 21.057 8.797l140.803 142.723 62.080-61.12c5.377-5.336 12.783-8.633 20.96-8.633s15.583 3.297 20.962 8.635l-0.002-0.002 131.2 131.52 28.32-28.32c5.344-5.158 12.629-8.336 20.656-8.336 16.436 0 29.76 13.324 29.76 29.76 0 8.027-3.178 15.312-8.345 20.665l0.008-0.009-49.28 49.28c-5.377 5.336-12.783 8.633-20.96 8.633s-15.583-3.297-20.962-8.635l0.002 0.002-131.84-131.2-61.28 61.28c-5.376 5.338-12.783 8.638-20.96 8.64v0c-8.257-0.002-15.728-3.366-21.118-8.798l-0.002-0.002-162.080-164.32c-5.243-5.36-8.477-12.703-8.477-20.802 0-16.323 13.141-29.576 29.42-29.758h0.017z" />
<glyph unicode="&#xe95a;" glyph-name="with-place" d="M580.48 362.88h251.52v-298.88h-704v697.28h301.6v-249.28c0-112 38.080-149.12 150.88-149.12zM608 738.4c0.183-51.379 41.875-92.959 93.279-92.959 51.517 0 93.28 41.763 93.28 93.28s-41.763 93.28-93.28 93.28c-0.169 0-0.337 0-0.505-0.001h0.026c-51.311-0.272-92.801-41.93-92.801-93.279 0-0.113 0-0.226 0.001-0.339v0.017zM700.16 608c-112 0-167.36-59.52-187.040-88-5.51-7.962-8.801-17.824-8.801-28.455 0-0.121 0-0.242 0.001-0.363v0.019c0-28.277 22.923-51.2 51.2-51.2v0h289.28c28.277 0 51.2 22.923 51.2 51.2v0c0.001 0.102 0.001 0.224 0.001 0.345 0 10.631-3.292 20.493-8.911 28.623l0.11-0.168c-19.68 28.32-74.4 88-187.040 88z" />
<glyph unicode="&#xe95b;" glyph-name="chart-pie" d="M806.080 740.96c-74.95 75.947-179.016 123.002-294.073 123.040h-0.007c-229.75 0-416-186.25-416-416s186.25-416 416-416v0 0c229.205 0.72 414.734 186.693 414.734 415.998 0 114.282-46.083 217.802-120.681 292.989l0.027-0.027zM743.36 176l-231.36 272-1.44 355.68h1.44c0.129 0 0.28 0 0.432 0 196.79 0 356.32-159.53 356.32-356.32 0-108.458-48.457-205.598-124.903-270.952l-0.489-0.408z" />
<glyph unicode="&#xe95c;" glyph-name="download" d="M288 592h160v256h128v-256h160l-224-348zM928 288h-96v-80h-640v80h-96v-192h832z" />
<glyph unicode="&#xe95d;" glyph-name="glo" d="M481.12 767.84h74.88v-481.92h-74.88v481.92zM791.52 626.72c-87.991-2.846-158.239-74.859-158.239-163.28 0-90.221 73.139-163.36 163.36-163.36s163.36 73.139 163.36 163.36c0 0.197 0 0.393-0.001 0.59v-0.030c-1.695 90.24-75.247 162.743-165.733 162.743-0.966 0-1.93-0.008-2.892-0.025l0.145 0.002zM791.52 366.88c-1.002-0.037-2.178-0.059-3.36-0.059-53.019 0-96 42.981-96 96s42.981 96 96 96c52.999 0 95.966-42.947 96-95.938v-0.003c0.006-0.387 0.009-0.845 0.009-1.303 0-51.584-41.235-93.537-92.541-94.695l-0.108-0.002zM228.48 204c-35.404 0.542-66.721 17.571-86.682 43.73l-0.198 0.27-68-32c32.533-49.544 87.841-81.805 150.683-81.805 1.419 0 2.835 0.016 4.246 0.049l-0.21-0.004c86.385 3.358 156.831 67.487 169.948 150.667l0.132 1.013h-76.8c-6.56-36.48-45.76-81.92-93.12-81.92zM331.36 593.12c-37.6 19.52-62.080 30.88-98.72 30.88-0.72 0.011-1.57 0.018-2.422 0.018-90.243 0-163.578-72.394-165.096-162.275l-0.002-0.142c0-89.76 78.24-162.56 170.56-162.56s170.56 72.32 170.56 161.76v152.8h-74.88zM232 365.44c-53.019 0-96 42.981-96 96s42.981 96 96 96v0c53.019 0 96-42.981 96-96s-42.981-96-96-96v0z" />
<glyph unicode="&#xe95e;" glyph-name="locked" d="M728.64 526.080v129.92c0 80-52.16 208-216.8 208s-216.8-129.12-216.8-208v-129.92h-135.040v-389.44c0-50.72 53.28-104.64 108-104.64h487.84c52.48 0 108.16 52 108.16 104.64v389.44zM567.68 172h-114.56l24.64 156.96c-15.16 10.527-24.96 27.849-24.96 47.459 0 31.812 25.788 57.6 57.6 57.6s57.6-25.788 57.6-57.6c0-19.611-9.8-36.933-24.771-47.335l-0.189-0.125zM647.68 526.24h-271.36v129.76c0 72.64 51.84 129.76 135.52 129.76s135.52-52 135.52-129.76z" />
<glyph unicode="&#xe95f;" glyph-name="unlocked" d="M756 525.92l32 83.52c28.64 74.4 26.080 212.64-128 272s-247.84-42.4-276-116l-22.72-57.28 75.84-29.28 22.4 57.12c26.080 67.68 95.040 102.56 173.12 72.32s107.68-97.28 80-169.92l-43.52-112h-507.84v-390.080c0-50.72 53.76-103.84 108.48-103.84h487.84c52.48 0 108.48 51.36 108.48 103.84v389.6zM569.44 171.68h-114.56l25.12 156.96c-15.16 10.527-24.96 27.849-24.96 47.459 0 31.812 25.788 57.6 57.6 57.6s57.6-25.788 57.6-57.6c0-19.611-9.8-36.933-24.771-47.335l-0.189-0.125z" />
<glyph unicode="&#xe960;" glyph-name="upload" d="M736 512h-160v-224h-128v224h-160l224 346.72zM928 288h-96v-80h-640v80h-96v-192h832z" />
<glyph unicode="&#xe961;" glyph-name="book" d="M808.16 849.92h-472.16c-17.673 0-32-14.327-32-32v0-37.6c0-0.001 0-0.001 0-0.002 0-4.009 3.205-7.269 7.192-7.358h421.768c21.316-0.091 38.56-17.391 38.56-38.72 0-0.056 0-0.113 0-0.169v0.009-601.6c0-0.001 0-0.001 0-0.002 0-4.009 3.205-7.269 7.192-7.358h38.088c17.673 0 32 14.327 32 32v0 651.52c0.001 0.095 0.001 0.208 0.001 0.321 0 22.51-18.157 40.778-40.624 40.959h-0.017zM702.080 727.2h-34.72v-242.88c0-12.48-9.76-19.68-16-12.32l-51.68 54.88c-2.306 2.876-5.82 4.702-9.76 4.702s-7.454-1.826-9.741-4.678l-0.019-0.025-52.16-54.88c-6.88-7.36-16 0-16 12.32v242.88h-310.24c0 0 0 0-0.001 0-13.785 0-24.96-11.175-24.96-24.96 0-0.056 0-0.112 0.001-0.169v0.009-628.64c-0.003-0.143-0.005-0.311-0.005-0.48 0-13.785 11.175-24.96 24.96-24.96 0.002 0 0.003 0 0.005 0h500.32c0 0 0 0 0.001 0 13.785 0 24.96 11.175 24.96 24.96 0 0.056 0 0.112-0.001 0.169v-0.009 628.96c0 0.048 0.001 0.104 0.001 0.16 0 13.785-11.175 24.96-24.96 24.96 0 0 0 0-0.001 0v0z" />
<glyph unicode="&#xe962;" glyph-name="event" d="M739.2 484.8l-48 51.2-232-214.4-126.4 115.2-46.4-49.6 172.8-160zM864 776h-84.8v75.2h-100.8v-75.2h-336v75.2h-100.8v-75.2h-84.8c-28.8-1.6-51.2-25.6-49.6-54.4v-617.6c-1.6-28.8 20.8-52.8 49.6-54.4h707.2c28.8 1.6 51.2 25.6 49.6 54.4v617.6c1.6 28.8-20.8 54.4-49.6 54.4zM846.4 123.2h-672v489.6h672v-489.6z" />
<glyph unicode="&#xe963;" glyph-name="reception" d="M872 401.6h-720c-12.8 0-24-11.2-24-24v-24c0-12.8 11.2-24 24-24h24v-240c0-12.8 11.2-24 24-24h624c12.8 0 24 11.2 24 24v240h24c12.8 0 24 11.2 24 24v24c0 12.8-11.2 24-24 24zM392 704c40 1.6 72 33.6 72 72 0 40-32 70.4-72 72-40-1.6-72-32-72-72 1.6-40 33.6-70.4 72-72zM516.8 518.4c22.4-27.2 46.4-51.2 75.2-70.4h80v35.2c-28.8 17.6-56 35.2-83.2 57.6-28.8 28.8-56 59.2-78.4 91.2-12.8 25.6-25.6 40-54.4 40h-121.6c-30.4 3.2-56-19.2-59.2-49.6l-17.6-174.4h259.2v70.4z" />
<glyph unicode="&#xe964;" glyph-name="time" d="M512 896c-248 0-448-200-448-448s200-448 448-448 448 200 448 448-200 448-448 448zM512 128c-176 0-320 144-320 320s144 320 320 320 320-144 320-320-144-320-320-320zM636.8 480v0h-107.2l-116.8 209.6c-9.6 16-28.8 20.8-43.2 11.2-16-9.6-20.8-28.8-11.2-43.2l124.8-225.6c6.4-9.6 16-16 28.8-16h126.4c17.6 0 32 14.4 32 32-1.6 17.6-16 32-33.6 32z" />
<glyph unicode="&#xe965;" glyph-name="date" d="M848 755.36h-80v64.96h-96v-64.96h-320v64.96h-96v-64.96h-80c-26.4 0-48-12-48-39.84v-612c-0.051-0.731-0.081-1.585-0.081-2.446 0-20.501 16.619-37.12 37.12-37.12 0.647 0 1.291 0.017 1.93 0.049l-0.090-0.004h681.12c26.51 0 48 21.49 48 48v0 596.16c-0.45 26.163-21.765 47.2-47.993 47.2-0.002 0-0.005 0-0.007 0v0zM307.68 134.4h-115.68v105.6h115.84zM307.68 294.4h-115.68v105.6h115.84zM307.68 462.72h-115.68v106.080h115.84zM482.080 135.040h-115.2v104.96h115.2zM482.080 295.040h-115.2v104.96h115.2zM482.080 463.36h-115.2v105.44h115.2zM656.96 134.88h-115.36v105.12h115.36zM656.96 294.88h-115.36v105.12h115.36zM656.96 463.2h-115.36v105.6h115.36zM832 134.72h-115.2v105.28h115.2zM832 294.72h-115.2v105.28h115.2zM832 464h-115.2v104.8h115.2z" />
<glyph unicode="&#xe966;" glyph-name="layers" d="M920.16 571.84l-393.76-197.12c-4.11-2.059-8.954-3.264-14.080-3.264s-9.97 1.205-14.265 3.348l0.185-0.084-393.76 197.12c-4.648 2.855-7.702 7.911-7.702 13.68s3.053 10.825 7.633 13.64l0.069 0.040 393.76 197.12c4.11 2.059 8.954 3.264 14.080 3.264s9.97-1.205 14.265-3.348l-0.185 0.084 393.76-197.12c4.648-2.855 7.702-7.911 7.702-13.68s-3.053-10.825-7.633-13.64l-0.069-0.040zM920.16 323.52l-157.12 78.72-236.64-118.56c-4.11-2.059-8.954-3.264-14.080-3.264s-9.97 1.205-14.265 3.348l0.185-0.084-236.64 118.4-157.12-78.56c-4.648-2.855-7.702-7.911-7.702-13.68s3.053-10.825 7.633-13.64l0.069-0.040 393.76-197.28c4.11-2.059 8.954-3.264 14.080-3.264s9.97 1.205 14.265 3.348l-0.185-0.084 393.76 197.28c4.648 2.855 7.702 7.911 7.702 13.68s-3.053 10.825-7.633 13.64l-0.069 0.040z" />
<glyph unicode="&#xe967;" glyph-name="flag" d="M151.68 832.16h16.48c12.901 0 23.36-10.459 23.36-23.36v-720.96c0-12.901-10.459-23.36-23.36-23.36h-16.48c-12.901 0-23.36 10.459-23.36 23.36v720.96c0 12.901 10.459 23.36 23.36 23.36zM873.12 768c-288-224-347.2 244.48-644-18.72-2.933-2.657-4.774-6.471-4.8-10.715v-379.685c0.004-7.773 6.306-14.073 14.080-14.073 3.488 0 6.68 1.268 9.139 3.369l-0.019-0.016c286.72 233.12 346.080-234.72 643.52 17.76 3.091 2.643 5.056 6.526 5.12 10.869v380.331c0 0.006 0 0.012 0 0.019 0 7.776-6.304 14.080-14.080 14.080-3.415 0-6.546-1.216-8.983-3.238l0.023 0.019z" />
<glyph unicode="&#xe968;" glyph-name="office-map" d="M689.44 32h-71.040v64h71.2zM547.2 32h-71.2v64h71.2zM832 32h-71.36v64h71.36zM404.96 32h-71.2v64h71.2zM262.72 32h-70.72v64h71.2zM509.92 864c-157.92 0-285.92-133.28-285.92-297.76s118.24-249.12 285.44-458.72c163.36 208 285.44 294.24 285.44 458.72s-127.2 297.76-284.96 297.76zM509.92 395.36c-0.761-0.012-1.66-0.018-2.56-0.018-99.765 0-180.64 80.875-180.64 180.64s80.875 180.64 180.64 180.64c99.758 0 180.63-80.865 180.64-180.621v-0.001c0.002-0.287 0.003-0.627 0.003-0.967 0-98.673-79.537-178.769-177.997-179.672l-0.086-0.001z" />
<glyph unicode="&#xe969;" glyph-name="relocation" d="M385.6 555.2h478.4v107.2h-478.4v107.2l-257.6-160 257.6-160zM896 288l-257.6 160v-105.6h-478.4v-107.2h478.4v-108.8z" />
<glyph unicode="&#xe96a;" glyph-name="sandglass" d="M791.84 801.44h72.16v64h-704v-64h74.080c6.72-161.44 73.6-294.4 168.64-353.44-95.040-58.4-161.92-192-169.76-352.96h-74.080v-64h705.12v64.96h-72.16c-7.84 160.96-74.88 294.080-169.76 352 94.88 59.040 161.92 192 169.76 353.44zM725.12 801.44c-2.554-45.148-10.445-87.471-23.080-127.693l1 3.693-193.12-92.16-187.36 89.28c-12.115 37.395-20.296 80.698-22.819 125.513l-0.061 1.367zM725.12 95.52v0zM716.96 164l-207.040 98.56-201.44-96c27.52 142.88 109.6 249.44 203.52 249.44s177.92-107.84 204.8-252z" />
<glyph unicode="&#xe96b;" glyph-name="user-list" d="M372.8 452.8c86.4-14.4 169.6 43.2 185.6 129.6 14.4 86.4-43.2 169.6-131.2 185.6-86.4 14.4-169.6-43.2-185.6-129.6-3.2-17.6-3.2-36.8 0-54.4 12.8-67.2 64-120 131.2-131.2zM400 403.2c-145.6 0-272-72-328-176-17.6-32-6.4-73.6 27.2-92.8 9.6-4.8 20.8-8 32-8h536c36.8 0 67.2 30.4 67.2 67.2 0 11.2-3.2 22.4-8 32-56 105.6-180.8 177.6-326.4 177.6zM622.4 732.8h337.6v-64h-337.6v64zM622.4 606.4h337.6v-64h-337.6v64zM622.4 483.2h337.6v-64h-337.6v64z" />
<glyph unicode="&#xe96c;" glyph-name="check-empty" d="M512 799.2c194.404 0 351.999-157.596 351.999-352s-157.596-352-352-352c-194.404 0-352 157.596-352 352 0 0.281 0 0.562 0.001 0.843v-0.043c-0.004 0.62-0.006 1.353-0.006 2.086 0 193.255 156.665 349.92 349.92 349.92 0.734 0 1.466-0.002 2.199-0.007l-0.113 0.001zM512 864v0c-229.75 0-416-186.25-416-416s186.25-416 416-416v0 0c229.75 0 416 186.25 416 416s-186.25 416-416 416v0z" />
<glyph unicode="&#xe96d;" glyph-name="check-fill" d="M806.080 740.96c-74.955 75.503-178.797 122.24-293.555 122.24-0.185 0-0.37 0-0.554 0h0.029c-229.75 0-416-186.25-416-416s186.25-416 416-416v0 0c229.547 0.269 415.528 186.415 415.528 416 0 114.678-46.403 218.519-121.457 293.769l0.009-0.009zM459.52 289.44l-36.8 35.2-141.92 139.36 48 46.56 130.88-128.96 236.8 233.6 48-46.72z" />
<glyph unicode="&#xe96e;" glyph-name="globe" d="M804.8 740.96c-75.028 75.506-178.934 122.24-293.755 122.24-0.115 0-0.229 0-0.344 0h0.018c-229.75 0-416-186.25-416-416s186.25-416 416-416v0 0c229.547 0.269 415.528 186.415 415.528 416 0 114.678-46.403 218.519-121.457 293.769l0.009-0.009zM160 480c5.775 60.194 26.055 114.7 57.273 161.255l-0.793-1.255h68.96c-14.7-47.351-24.296-102.083-26.676-158.68l-0.044-1.32zM742.88 480c-2.424 57.917-12.020 112.649-27.937 164.618l1.217-4.618h88.64c30.217-45.344 50.33-99.853 55.893-158.599l0.107-1.401zM542.4 192h78.080c-17.706-34.643-44.437-62.505-77.126-81.101l-0.954-0.499zM542.4 256v160h136.48c-2.688-58.059-13.433-112.706-31.15-164.105l1.23 4.105zM542.4 480v160h106.080c16.596-47.314 27.349-101.974 29.877-158.773l0.043-1.227zM478.4 704h-96c26.56 46.56 60 78.24 96 87.68zM542.4 784c33.177-18.748 59.602-46.046 76.776-78.94l0.504-1.060h-77.6zM691.68 704c-11.411 24.516-23.843 45.513-38.061 65.131l0.781-1.131c36.942-16.87 68.646-38.332 96.19-64.176l-0.19 0.176zM309.6 704h-39.52c19.363 18.236 40.961 34.486 64.233 48.2l1.687 0.92c-8.8-13.734-17.608-29.844-25.336-46.555l-1.064-2.565zM352.8 640h125.28v-160h-155.52c2.684 58.067 13.546 112.71 31.468 164.040l-1.228-4.040zM478.080 416v-160h-126.080c-16.487 47.294-27.232 101.941-29.872 158.705l-0.048 1.295zM478.080 192v-89.6c-36.8 9.44-70.56 41.6-97.28 88.8zM336 141.28c-25.541 14.742-47.624 31.27-67.529 50.078l0.169-0.158h40.16c8.817-19.413 17.894-35.788 28.088-51.366l-0.888 1.446zM691.52 191.2h60.48c-27.608-26.019-59.634-47.752-94.761-63.894l-2.199-0.906c13.396 18.7 25.688 39.978 35.842 62.431l0.958 2.369zM715.84 255.2c14.654 47.393 24.145 102.147 26.362 158.77l0.038 1.23h118.080c-5.569-60.553-25.755-115.462-56.966-162.409l0.806 1.289zM861.76 447.2v0zM158.080 448v0zM160 416h98.88c2.255-57.851 11.746-112.606 27.603-164.584l-1.203 4.584h-69.6v-0.96c-30.264 45.629-50.296 100.502-55.583 159.621l-0.097 1.339z" />
<glyph unicode="&#xe96f;" glyph-name="cards" d="M199.68 800.16h208.96c21.65 0 39.2-17.55 39.2-39.2v-434.4c0-21.65-17.55-39.2-39.2-39.2h-208.96c-21.65 0-39.2 17.55-39.2 39.2v434.4c0 21.65 17.55 39.2 39.2 39.2zM616.8 800.16h206.080c22.622 0 40.96-18.338 40.96-40.96v-620.64c0-22.622-18.338-40.96-40.96-40.96h-206.080c-22.622 0-40.96 18.338-40.96 40.96v620.64c0 22.622 18.338 40.96 40.96 40.96z" />
<glyph unicode="&#xe970;" glyph-name="arrow-double-up" d="M512 694.24l336-336c3.951-4.018 9.445-6.508 15.52-6.508s11.569 2.49 15.517 6.505l42.563 42.563c4.018 3.951 6.508 9.445 6.508 15.52s-2.49 11.569-6.505 15.517l-393.603 393.283c-4.069 4.15-9.734 6.723-16 6.723s-11.931-2.573-15.996-6.72l-393.284-393.124c-4.018-3.951-6.508-9.445-6.508-15.52s2.49-11.569 6.505-15.517l42.563-42.563c3.951-4.018 9.445-6.508 15.52-6.508s11.569 2.49 15.517 6.505l0.003 0.003zM102.72 175.2c-4.018-3.951-6.508-9.445-6.508-15.52s2.49-11.569 6.505-15.517l42.563-42.563c3.951-4.018 9.445-6.508 15.52-6.508s11.569 2.49 15.517 6.505l336.003 336.003 336-336c3.951-4.018 9.445-6.508 15.52-6.508s11.569 2.49 15.517 6.505l0.003 0.003 41.92 42.4c4.018 3.951 6.508 9.445 6.508 15.52s-2.49 11.569-6.505 15.517l-394.403 394.563c-3.695 3.793-8.853 6.146-14.56 6.146s-10.865-2.353-14.556-6.141l-0.004-0.004z" />
<glyph unicode="&#xe971;" glyph-name="arrow-double-down" d="M513.6 202.24l-336 336c-3.986 3.941-9.469 6.375-15.52 6.375s-11.534-2.434-15.522-6.377l-42.238-42.238c-4.018-3.951-6.508-9.445-6.508-15.52s2.49-11.569 6.505-15.517l0.003-0.003 392.96-393.76c4.105-4.073 9.759-6.589 16-6.589s11.895 2.517 16.001 6.591l-0.001-0.001 393.6 392.8c3.941 3.986 6.375 9.469 6.375 15.52s-2.434 11.534-6.377 15.522l-42.878 42.878c-3.961 3.931-9.417 6.361-15.44 6.361s-11.479-2.429-15.441-6.362l0.001 0.001zM922.88 720c3.941 3.986 6.375 9.469 6.375 15.52s-2.434 11.534-6.377 15.522l0.002-0.002-42.88 43.040c-3.925 4.009-9.392 6.495-15.44 6.495s-11.515-2.486-15.436-6.491l-336.004-336.004-336 336c-3.951 4.018-9.445 6.508-15.52 6.508s-11.569-2.49-15.517-6.505l-0.003-0.003-41.76-42.080c-4.018-3.951-6.508-9.445-6.508-15.52s2.49-11.569 6.505-15.517l0.003-0.003 394.4-394.88c3.695-3.793 8.853-6.146 14.56-6.146s10.865 2.353 14.556 6.141l0.004 0.004z" />
<glyph unicode="&#xe972;" glyph-name="split" d="M668.32 286.88l-213.28 159.68 213.28 162.56 60-80.32 123.36 287.2-310.4-36.64 60-80.48-260.96-194.88h-195.040v-112h195.040l260.96-194.88-60-80.48 310.4-36.64-123.36 287.2-60-80.32z" />
<glyph unicode="&#xe973;" glyph-name="play" d="M192 156.64v582.72c0 0.052-0.001 0.113-0.001 0.175 0 15.552 12.608 28.16 28.16 28.16 3.989 0 7.784-0.829 11.222-2.325l-0.182 0.070 648.8-291.52c9.805-4.687 16.458-14.527 16.458-25.92s-6.653-21.233-16.286-25.846l-0.172-0.074-649.28-291.36c-3.167-1.349-6.852-2.133-10.72-2.133-15.464 0-28 12.536-28 28 0 0.019 0 0.038 0 0.056v-0.003z" />
<glyph unicode="&#xe974;" glyph-name="merge" d="M634.56 513.6h-94.56l-301.44 296-90.56-90.56 269.6-269.44-269.6-269.6 90.56-90.56 301.44 296.16h94.56v-114.72l309.44 178.72-309.44 178.72v-114.72z" />
<glyph unicode="&#xe975;" glyph-name="burger" d="M144.48 809.28h735.040c8.837 0 16-7.163 16-16v-78.56c0-8.837-7.163-16-16-16h-735.040c-8.837 0-16 7.163-16 16v78.56c0 8.837 7.163 16 16 16zM144.48 503.36h735.040c8.837 0 16-7.163 16-16v-78.56c0-8.837-7.163-16-16-16h-735.040c-8.837 0-16 7.163-16 16v78.56c0 8.837 7.163 16 16 16zM144.48 197.28h735.040c8.837 0 16-7.163 16-16v-78.56c0-8.837-7.163-16-16-16h-735.040c-8.837 0-16 7.163-16 16v78.56c0 8.837 7.163 16 16 16z" />
<glyph unicode="&#xe976;" glyph-name="ticket" d="M717.76 403.84l43.84 44.16 43.040-43.2 155.36 155.2-105.6 105.6c-15.742-14.644-36.919-23.631-60.194-23.631-48.866 0-88.48 39.614-88.48 88.48 0 23.236 8.957 44.38 23.606 60.168l-0.052-0.056-105.28 105.44-155.36-155.36 39.84-39.84-44.48-43.68-39.84 39.84-356.16-356.8 105.6-105.6c15.732 14.598 36.875 23.554 60.111 23.554 48.866 0 88.48-39.614 88.48-88.48 0-23.276-8.987-44.452-23.681-60.249l0.050 0.054 105.76-105.6 356.64 356.8zM565.76 555.68l-50.56 50.72 43.68 43.68 50.72-50.56zM667.2 454.4l-50.72 50.72 43.68 43.68 50.72-50.56z" />
</font>
</defs>
</svg>
